#N canvas 0 52 1920 977 12;
#X obj 120 36 inlet~;
#X obj 100 236 outlet~ L;
#X obj 242 236 outlet~ R;
#X obj 100 180 *~;
#X obj 260 36 inlet command;
#X obj 242 186 *~;
#X obj 260 70 expr $f1 \; 1-$f1;
#X msg 139 126 \$1 2;
#X obj 139 155 line~;
#X msg 260 124 \$1 2;
#X obj 260 153 line~;
#X connect 0 0 3 0;
#X connect 0 0 5 0;
#X connect 3 0 1 0;
#X connect 4 0 6 0;
#X connect 5 0 2 0;
#X connect 6 0 9 0;
#X connect 6 1 7 0;
#X connect 7 0 8 0;
#X connect 8 0 3 1;
#X connect 9 0 10 0;
#X connect 10 0 5 1;
