#N canvas 7 71 1718 949 10;
#X obj 688 195 cnv 15 267 257 empty empty empty 20 12 0 14 #e0e0e0
#404040 0;
#X obj 270 -607 cnv 15 218 368 empty empty empty 20 12 0 14 #b4f8a4
#404040 0;
#X obj 11 -488 cnv 15 212 237 empty empty empty 20 12 0 14 #50c834
#404040 0;
#X obj 552 351 cnv 15 102 203 empty empty empty 20 12 0 14 #fcb0fc
#404040 0;
#X obj 450 -71 cnv 15 210 153 empty empty empty 20 12 0 14 #e0e0e0
#404040 0;
#X obj 677 -567 cnv 15 503 650 empty empty empty 20 12 0 14 #e0e0e0
#404040 0;
#X text 680 -560 TEXTURES;
#X obj 19 -320 bng 38 50 50 0 empty empty empty 17 7 0 10 #fcfcfc #000000
#000000;
#X obj 19 -273 s EVENT;
#N canvas 543 249 702 584 processing 0;
#X text 233 118 1- loudness;
#X text 176 143 2- spectral centroid;
#X text 228 166 3- flatness;
#X floatatom 306 142 9 0 0 0 - - -, f 9;
#X floatatom 305 167 9 0 0 0 - - -, f 9;
#X floatatom 306 118 9 0 0 0 - - -, f 9;
#X obj 316 34 unpack f f f;
#X obj 84 353 outlet BangEnvelope;
#X obj 495 354 outlet param;
#X obj 316 -24 inlet;
#X obj 316 8 route /hit;
#X connect 6 0 5 0;
#X connect 6 1 3 0;
#X connect 6 2 4 0;
#X connect 9 0 10 0;
#X connect 10 0 6 0;
#X connect 10 0 7 0;
#X connect 10 0 8 0;
#X coords 0 -1 1 1 203 96 1 169 97;
#X restore 19 -455 pd processing;
#N canvas 4 96 1822 895 mapping 0;
#X obj 811 616 cnv 15 679 895 empty empty empty 20 12 0 14 #e0e0e0
#404040 0;
#X obj 1218 212 cnv 15 589 310 empty empty empty 20 12 0 14 #e0e0e0
#404040 0;
#X obj -546 215 cnv 15 1020 712 empty empty empty 20 12 0 14 #e0e0e0
#404040 0;
#X obj 738 213 cnv 15 432 345 empty empty empty 20 12 0 14 #e0e0e0
#404040 0;
#X obj 228 -240 cnv 15 182 190 empty empty empty 20 12 0 14 #e0e0e0
#404040 0;
#X obj 256 -215 inlet parameters;
#X obj 256 -147 unpack f f f;
#X msg -2 441 0;
#X obj -2 491 s texture.frequency.type__;
#X obj -2 554 s texture.frequency.base_freq__;
#X obj -2 298 moses 1500, f 40;
#X msg -2 596 50;
#X obj -2 621 s texture.frequency.dutycycle__;
#X obj -2 417 bng 15 250 50 0 empty empty empty 17 7 0 10 #fcfcfc #000000
#000000;
#X obj 235 417 bng 15 250 50 0 empty empty empty 17 7 0 10 #fcfcfc
#000000 #000000;
#X msg 235 448 1;
#X msg 235 597 10;
#X obj -2 273 spigot;
#X obj 31 242 tgl 15 0 empty empty empty 17 7 0 10 #fcfcfc #000000
#000000 1 1;
#X obj 453 -503 vradio 15 0 0 6 empty empty empty 0 -8 0 10 #fcfcfc
#000000 #000000 0;
#X obj 453 -326 sel 0 1 2 3 4 5, f 106;
#X obj 798 444 maxlib/scale 400 4000 0 1;
#X obj 798 309 spigot;
#X obj 831 288 tgl 15 0 empty empty empty 17 7 0 10 #fcfcfc #000000
#000000 0 1;
#X text 473 -504 1;
#X text 473 -489 2;
#X text 473 -474 3;
#X text 473 -459 4;
#X text 473 -444 5;
#X text 473 -429 6;
#X text 408 -473 preset;
#X obj 31 217 r oo_preset1;
#X obj 866 250 r oo_preset2;
#X obj 963 400 s texture.frequency.type__;
#X msg 963 375 3;
#X obj -240 357 s texture.amplitude.oo_constant_amp;
#X msg -221 329 1;
#X obj -267 260 sel 0 1, f 16;
#X msg -240 309 0;
#X obj -267 421 s texture.amplitude.mode;
#X msg -267 384 2;
#X msg 536 -160 1;
#X obj 536 -138 s oo_preset3;
#X msg 569 -160 0;
#X msg 411 -273 1;
#X msg 444 -273 0;
#X msg 470 -217 1;
#X msg 503 -217 0;
#X obj 411 -251 s oo_preset1;
#X obj 470 -195 s oo_preset2;
#X floatatom 275 -111 5 0 0 0 - - -, f 5;
#X obj 297 -179 inlet fake;
#X obj 162 -668 loadbang;
#X msg 681 4 1;
#X msg 714 4 0;
#X msg 556 -109 1;
#X msg 589 -109 0;
#X msg 615 -53 1;
#X msg 648 -53 0;
#X obj 556 -87 s oo_preset4;
#X obj 615 -31 s oo_preset5;
#X obj 681 26 s oo_preset6;
#X text 864 215 ------ PRESET 2 ------;
#X text -269 227 ------ PRESET 1 ------;
#X msg -194 385 1;
#X obj -267 282 t b b;
#X obj -221 282 t b b;
#X obj 1369 330 spigot;
#X obj 1459 272 tgl 15 0 empty empty empty 17 7 0 10 #fcfcfc #000000
#000000 0 1;
#X text 1401 221 ------ PRESET 3 ------;
#X obj 1459 247 r oo_preset3;
#X obj 1538 330 spigot;
#X obj 1538 354 * 200;
#X obj 1369 377 s wave_noise.relativeamp;
#X obj 1538 379 s wave_noise.freq;
#X obj 304 -78 s sp.cent;
#X text 253 -235 real data in;
#X text 283 -198 simulated data in;
#X text 972 419 f=0 > switch off frequency.type;
#X msg 963 326 1;
#X text 807 465 pan < spectral centroid;
#X text -547 247 enter preset 1:;
#X text -533 264 set texture.amplitude.mode to "pulse";
#X text -546 306 leave preset 1:;
#X text -532 323 set texture.amplitude.mode to "off";
#X text -533 281 set texture.amplitude.constant to 1 (on);
#X text -532 340 set texture.amplitude.constant to 0 (off);
#X text -32 475 0-const \, 1-rand \, 2-ramp \, 3-off;
#X text -31 461 type of freq;
#X text -33 516 base freq;
#X text -34 580 duty cycle;
#X msg 235 677 5;
#X text -35 664 rate of change (Hz) for the freq;
#X text -36 742 freq deviation (%);
#X obj 241 723 s texture.frequency.ramp_freq__;
#X obj 235 785 s texture.frequency.freq_deviation__;
#X obj 235 704 s texture.frequency_randfreq_rate__;
#X obj 234 905 s texture.amplitude.pulse.refresh;
#X obj 235 491 s texture.frequency.type__;
#X obj 235 553 s texture.frequency.base_freq__;
#X obj 235 621 s texture.frequency.dutycycle__;
#X obj 234 844 t b b;
#X obj 261 885 s texture.amplitude.pulse.adsr;
#X obj -1 905 s texture.amplitude.pulse.refresh;
#X obj -1 844 t b b;
#X obj 26 885 s texture.amplitude.pulse.adsr;
#X text -34 823 ADSR params for pulse amplitude;
#X msg 26 864 50 2 148 50;
#X msg -2 533 35;
#X msg 235 529 8;
#X msg 235 761 100;
#X text 737 270 spec. cent.;
#X text -50 255 spec. cent.;
#X text 1472 311 spec. flat.;
#X text 1538 421 map spectral flatness to frequency;
#X obj 1670 382 s wave_noise.mode;
#X msg 1670 358 2;
#X text 1696 358 order square waves;
#X obj 1650 262 sel 0 1;
#X obj 1669 326 s wave_noise.dutycycle;
#X msg 1669 303 10;
#X text 1284 319 spec. cent.;
#X obj 1369 353 / 5000;
#X text 1226 400 map spec. cent. to wave/noise relative amplitude;
#X text 1280 417 low SC -> wave only;
#X text 1281 434 high SC -> noise only;
#X obj 944 284 sel 0 1;
#X text 995 328 turn spatial on/off;
#X msg 944 305 0;
#X obj 944 348 s spatial_oo__;
#X obj 798 485 s spatial.norm_angle;
#X msg 1020 454 0;
#X obj 1020 478 s spatial.mode__;
#X text 991 495 set angle control to manual;
#X obj 1042 731 spigot;
#X obj 1075 706 tgl 15 0 empty empty empty 17 7 0 10 #fcfcfc #000000
#000000 0 1;
#X text 1200 732 > hit analysis 12 low thres / 17;
#X obj 1256 908 cyclone/counter;
#X obj 1256 958 sel 0 1, f 16;
#X obj 1257 933 % 2;
#X obj 1074 654 r oo_preset4;
#X text 994 632 ------ PRESET 4 ------;
#X text 1212 644 "deluxe guitar";
#X obj 939 956 s spatial.mode__;
#X obj 920 815 sel 0 1;
#X msg 939 932 1;
#X text 848 912 set angle control to auto;
#X msg 939 1009 2;
#X msg 939 1215 50;
#X obj 939 1034 s texture.frequency.type__;
#X obj 939 1136 s texture.frequency.base_freq__;
#X obj 939 1184 s texture.frequency.ramp_freq__;
#X obj 939 1235 s texture.frequency.dutycycle__;
#X msg 939 1116 20;
#X obj 939 1087 s texture.frequency.freq_deviation__;
#X msg 939 1164 50;
#X obj 939 1335 s texture.amplitude.type__;
#X msg 939 1315 0;
#X text 831 984 and set the texture;
#X obj 1256 1074 s spatial.traj;
#X text 964 1008 ramp;
#X obj 939 1432 s texture.amplitude.pulse.refresh;
#X obj 939 1371 t b b;
#X obj 966 1412 s texture.amplitude.pulse.adsr;
#X text 967 1265 pulse;
#X text 1032 1391 ADSR params;
#X obj 939 1286 s texture.amplitude.mode;
#X text 969 1315 no change in amp during the pulse;
#X msg 939 1064 50;
#X text 968 1165 rate of freq change;
#X msg 939 862 1;
#X obj 939 884 s spatial_oo__;
#X text 866 842 turn spatial on;
#X msg 939 1265 1;
#X obj 1042 686 r EVENT;
#X text 1195 667 set a texture & sweep the vibrators;
#X text 1195 684 (change direction at each event);
#X obj 1669 473 s spatial_oo__;
#X msg 1669 450 0;
#X text 1699 449 turn spatial off;
#X obj -340 144 s MASTERVOL;
#X text 181 224 > hit analysis 22 low thres / 35 high thresh;
#X obj -374 15 maxlib/scale 25 90 0 1;
#X text -38 320 compare to some level & assign textures;
#X text 185 -130 loudness;
#X obj 962 539 s MASTERVOL;
#X msg 962 519 0.8;
#X obj 1670 520 s MASTERVOL;
#X msg 1670 500 0.8;
#X obj 939 1488 s MASTERVOL;
#X msg 939 1468 0.8;
#X obj 412 -407 vradio 15 0 0 2 empty empty empty 0 -8 0 10 #fcfcfc
#000000 #000000 0;
#X obj -374 63 spigot;
#X obj -216 18 sel 0;
#X obj -216 43 delay 10;
#X msg -216 68 0.95;
#X text 440 -401 in vol -> out vol;
#X text -459 40 map loudness to MASTERVOL;
#X text -258 101 ... or not;
#X text 826 -98 oo_preseti messages are sent \, where i=preset number.
oo=on/off \, so 0/1 are sent;
#X text 789 233 EVENT => ping-pong + map spectral centroid to position
;
#X text 430 -410 0;
#X text 430 -393 1;
#X msg 1391 1045 1 200;
#X msg 1437 1045 0 200;
#X msg 1256 1047 1 100;
#X msg 1302 1047 0 100;
#X msg 343 865 5 5 235 5;
#X msg 261 864 5 5 150 5;
#X text 404 865 (previous values);
#X msg 1108 1392 5 5 235 5;
#X msg 966 1391 5 2 88 5;
#X text 1172 1390 (previous values);
#X text 1379 1018 (previous values);
#X msg 162 -643 0;
#X msg 191 -642 0;
#X obj 452 -580 inlet Preset;
#X obj 1361 -438 cnv 15 409 327 empty empty empty 20 12 0 14 #e0e0e0
#404040 0;
#X text 1385 -417 ------ PRESET 5 ------;
#X obj 1416 -391 r oo_preset5;
#X obj 1416 -323 s RESET_IN;
#X text 1396 -305 restore previous audio input selection when exiting
preset 5;
#X obj 1463 -247 s InputSelection__;
#X msg 1463 -270 3;
#X obj 1416 -350 sel 0 1;
#X text 1431 -224 shut normal processing off when entering preset 5
(see analyse_audio);
#X obj 1412 -145 s MASTERVOL;
#X msg 1412 -165 0.8;
#N canvas 1 55 1918 977 preset5_processing 0;
#X obj 347 -151 adc~ 1 2;
#X obj 523 49 bonk~ -npts 256;
#N canvas 733 417 450 300 square 0;
#X obj 109 55 *~ 2;
#X obj 109 80 -~ 1;
#X obj 109 -48 phasor~ 200;
#X obj 109 183 *~ 1;
#X obj 109 221 outlet~ vib;
#X obj 109 -78 inlet f;
#X obj 109 30 expr~ $v1 > 0.5;
#X connect 0 0 1 0;
#X connect 1 0 3 0;
#X connect 2 0 6 0;
#X connect 3 0 4 0;
#X connect 5 0 2 0;
#X connect 6 0 0 0;
#X restore 538 185 pd square;
#X obj 523 211 *~;
#X obj 559 328 dac~ 1 2;
#X obj 484 20 spigot~;
#X obj 459 -96 tgl 15 0 empty empty empty 17 7 0 10 #fcfcfc #000000
#000000 0 1;
#X msg 523 88 bang;
#X floatatom 687 -175 5 0 0 0 - - -, f 5;
#X floatatom 687 -197 5 0 0 0 - - -, f 5;
#X floatatom 687 -153 5 0 0 0 - - -, f 5;
#X floatatom 687 -132 5 0 0 0 - - -, f 5;
#X text 723 -197 attack time (ms);
#X text 729 -175 decay time (ms);
#X text 721 -154 sustain time (ms);
#X text 722 -133 release time (ms);
#X obj 523 134 lyonpotpourri/adsr~;
#X msg 629 -198 set_a \$1;
#X msg 629 -175 set_d \$1;
#X msg 630 -154 set_s \$1;
#X msg 630 -132 set_r \$1;
#X text 672 -221 ADSR - in1;
#X obj 701 48 bonk~ -npts 256;
#X obj 701 210 *~;
#X obj 662 19 spigot~;
#X obj 701 133 lyonpotpourri/adsr~;
#X floatatom 830 -175 5 0 0 0 - - -, f 5;
#X floatatom 830 -197 5 0 0 0 - - -, f 5;
#X floatatom 830 -153 5 0 0 0 - - -, f 5;
#X floatatom 830 -132 5 0 0 0 - - -, f 5;
#X msg 866 -198 set_a \$1;
#X msg 866 -175 set_d \$1;
#X msg 867 -154 set_s \$1;
#X msg 867 -132 set_r \$1;
#X text 818 -222 ADSR - in2;
#X obj 798 -308 unpack f f f f;
#X floatatom 689 -102 5 0 0 0 - - -, f 5;
#X msg 618 -278 150;
#X text 751 -102 freq;
#X msg 892 -264 200;
#X floatatom 830 -101 5 0 0 0 - - -, f 5;
#X msg 798 -333 5 5 50 10;
#X obj 704 -356 loadbang;
#X obj 704 -309 unpack f f f f;
#X msg 704 -334 20 0 48 2;
#N canvas 733 417 450 300 square 0;
#X obj 109 55 *~ 2;
#X obj 109 80 -~ 1;
#X obj 109 -48 phasor~ 200;
#X obj 109 183 *~ 1;
#X obj 109 221 outlet~ vib;
#X obj 109 -78 inlet f;
#X obj 109 30 expr~ $v1 > 0.5;
#X connect 0 0 1 0;
#X connect 1 0 3 0;
#X connect 2 0 6 0;
#X connect 3 0 4 0;
#X connect 5 0 2 0;
#X connect 6 0 0 0;
#X restore 716 173 pd square;
#X msg 701 85 bang;
#X obj 992 -96 t b f;
#X msg 1019 -71 set minvel \$1;
#X msg 992 -39 minvel 8;
#X msg 1278 69 thresh 5 9;
#X obj 1278 -111 r arthurdetect_lowthresh;
#X obj 1311 -83 r arthurdetect_highthresh;
#X obj 1311 -58 t b f;
#X obj 1278 -22 pack f f;
#X msg 1278 12 set thresh \$1 \$2;
#X obj 1278 40 t b a;
#X obj 992 -126 r arthurdetect_minvel;
#X obj 654 -220 bng 15 250 50 0 empty empty empty 17 7 0 10 #fcfcfc
#000000 #000000;
#X obj 885 -222 bng 15 250 50 0 empty empty empty 17 7 0 10 #fcfcfc
#000000 #000000;
#X obj 459 -196 r oo_preset5;
#X connect 0 0 5 0;
#X connect 0 1 24 0;
#X connect 1 0 7 0;
#X connect 1 0 58 0;
#X connect 2 0 3 1;
#X connect 3 0 4 0;
#X connect 5 1 1 0;
#X connect 6 0 5 1;
#X connect 6 0 24 1;
#X connect 7 0 16 0;
#X connect 8 0 18 0;
#X connect 9 0 17 0;
#X connect 10 0 19 0;
#X connect 11 0 20 0;
#X connect 16 0 3 0;
#X connect 17 0 16 0;
#X connect 18 0 16 0;
#X connect 19 0 16 0;
#X connect 20 0 16 0;
#X connect 22 0 46 0;
#X connect 22 0 59 0;
#X connect 23 0 4 1;
#X connect 24 1 22 0;
#X connect 25 0 23 0;
#X connect 26 0 31 0;
#X connect 27 0 30 0;
#X connect 28 0 32 0;
#X connect 29 0 33 0;
#X connect 30 0 25 0;
#X connect 31 0 25 0;
#X connect 32 0 25 0;
#X connect 33 0 25 0;
#X connect 35 0 27 0;
#X connect 35 1 26 0;
#X connect 35 2 28 0;
#X connect 35 3 29 0;
#X connect 36 0 2 0;
#X connect 37 0 36 0;
#X connect 39 0 40 0;
#X connect 40 0 45 0;
#X connect 41 0 35 0;
#X connect 42 0 44 0;
#X connect 42 0 41 0;
#X connect 42 0 39 0;
#X connect 42 0 37 0;
#X connect 43 0 9 0;
#X connect 43 1 8 0;
#X connect 43 2 10 0;
#X connect 43 3 11 0;
#X connect 44 0 43 0;
#X connect 45 0 23 1;
#X connect 46 0 25 0;
#X connect 47 0 49 0;
#X connect 47 1 48 0;
#X connect 48 0 49 0;
#X connect 49 0 22 0;
#X connect 49 0 1 0;
#X connect 50 0 22 0;
#X connect 50 0 1 0;
#X connect 51 0 54 0;
#X connect 52 0 53 0;
#X connect 53 0 54 0;
#X connect 53 1 54 1;
#X connect 54 0 55 0;
#X connect 55 0 56 0;
#X connect 56 0 50 0;
#X connect 56 1 50 0;
#X connect 57 0 47 0;
#X connect 60 0 6 0;
#X coords 0 -1 1 1 350 180 1 601 -243;
#X restore 563 -528 pd preset5_processing;
#X connect 5 0 6 0;
#X connect 6 0 182 0;
#X connect 6 1 17 0;
#X connect 6 1 22 0;
#X connect 6 1 50 0;
#X connect 6 1 75 0;
#X connect 6 1 67 0;
#X connect 6 2 71 0;
#X connect 7 0 8 0;
#X connect 10 0 13 0;
#X connect 10 1 14 0;
#X connect 11 0 12 0;
#X connect 13 0 7 0;
#X connect 13 0 108 0;
#X connect 13 0 11 0;
#X connect 13 0 104 0;
#X connect 14 0 15 0;
#X connect 14 0 109 0;
#X connect 14 0 16 0;
#X connect 14 0 91 0;
#X connect 14 0 110 0;
#X connect 14 0 101 0;
#X connect 15 0 98 0;
#X connect 16 0 100 0;
#X connect 17 0 10 0;
#X connect 18 0 17 1;
#X connect 19 0 20 0;
#X connect 20 0 44 0;
#X connect 20 0 47 0;
#X connect 20 0 43 0;
#X connect 20 0 56 0;
#X connect 20 0 58 0;
#X connect 20 0 54 0;
#X connect 20 1 45 0;
#X connect 20 1 46 0;
#X connect 20 1 43 0;
#X connect 20 1 56 0;
#X connect 20 1 58 0;
#X connect 20 1 54 0;
#X connect 20 2 45 0;
#X connect 20 2 47 0;
#X connect 20 2 41 0;
#X connect 20 2 56 0;
#X connect 20 2 58 0;
#X connect 20 2 54 0;
#X connect 20 3 45 0;
#X connect 20 3 47 0;
#X connect 20 3 43 0;
#X connect 20 3 58 0;
#X connect 20 3 54 0;
#X connect 20 3 55 0;
#X connect 20 4 54 0;
#X connect 20 4 56 0;
#X connect 20 4 43 0;
#X connect 20 4 47 0;
#X connect 20 4 45 0;
#X connect 20 4 57 0;
#X connect 20 5 58 0;
#X connect 20 5 56 0;
#X connect 20 5 43 0;
#X connect 20 5 47 0;
#X connect 20 5 45 0;
#X connect 20 5 53 0;
#X connect 21 0 130 0;
#X connect 22 0 21 0;
#X connect 23 0 22 1;
#X connect 31 0 18 0;
#X connect 31 0 37 0;
#X connect 32 0 23 0;
#X connect 32 0 126 0;
#X connect 34 0 33 0;
#X connect 36 0 35 0;
#X connect 37 0 65 0;
#X connect 37 1 66 0;
#X connect 38 0 35 0;
#X connect 40 0 39 0;
#X connect 41 0 42 0;
#X connect 43 0 42 0;
#X connect 44 0 48 0;
#X connect 45 0 48 0;
#X connect 46 0 49 0;
#X connect 47 0 49 0;
#X connect 51 0 6 0;
#X connect 52 0 214 0;
#X connect 52 0 215 0;
#X connect 53 0 61 0;
#X connect 54 0 61 0;
#X connect 55 0 59 0;
#X connect 56 0 59 0;
#X connect 57 0 60 0;
#X connect 58 0 60 0;
#X connect 64 0 39 0;
#X connect 65 0 40 0;
#X connect 65 1 38 0;
#X connect 66 0 36 0;
#X connect 66 1 64 0;
#X connect 67 0 122 0;
#X connect 68 0 67 1;
#X connect 68 0 71 1;
#X connect 68 0 118 0;
#X connect 70 0 68 0;
#X connect 71 0 72 0;
#X connect 72 0 74 0;
#X connect 79 0 129 0;
#X connect 91 0 94 0;
#X connect 91 0 96 0;
#X connect 101 0 97 0;
#X connect 101 1 208 0;
#X connect 104 0 103 0;
#X connect 104 1 107 0;
#X connect 107 0 105 0;
#X connect 108 0 9 0;
#X connect 109 0 99 0;
#X connect 110 0 95 0;
#X connect 116 0 115 0;
#X connect 118 1 116 0;
#X connect 118 1 120 0;
#X connect 118 1 178 0;
#X connect 118 1 188 0;
#X connect 120 0 119 0;
#X connect 122 0 73 0;
#X connect 126 0 128 0;
#X connect 126 1 79 0;
#X connect 126 1 34 0;
#X connect 126 1 131 0;
#X connect 126 1 186 0;
#X connect 128 0 129 0;
#X connect 131 0 132 0;
#X connect 134 0 137 0;
#X connect 135 0 134 1;
#X connect 135 0 144 0;
#X connect 137 0 139 0;
#X connect 138 0 205 0;
#X connect 138 1 206 0;
#X connect 139 0 138 0;
#X connect 140 0 135 0;
#X connect 144 1 145 0;
#X connect 144 1 147 0;
#X connect 144 1 168 0;
#X connect 144 1 153 0;
#X connect 144 1 155 0;
#X connect 144 1 148 0;
#X connect 144 1 173 0;
#X connect 144 1 157 0;
#X connect 144 1 162 0;
#X connect 144 1 170 0;
#X connect 144 1 190 0;
#X connect 145 0 143 0;
#X connect 147 0 149 0;
#X connect 148 0 152 0;
#X connect 153 0 150 0;
#X connect 155 0 151 0;
#X connect 157 0 156 0;
#X connect 162 0 161 0;
#X connect 162 1 211 0;
#X connect 168 0 154 0;
#X connect 170 0 171 0;
#X connect 173 0 166 0;
#X connect 174 0 134 0;
#X connect 178 0 177 0;
#X connect 182 0 192 0;
#X connect 186 0 185 0;
#X connect 188 0 187 0;
#X connect 190 0 189 0;
#X connect 191 0 192 1;
#X connect 191 0 193 0;
#X connect 192 0 180 0;
#X connect 193 0 194 0;
#X connect 194 0 195 0;
#X connect 195 0 180 0;
#X connect 205 0 159 0;
#X connect 206 0 159 0;
#X connect 208 0 102 0;
#X connect 211 0 163 0;
#X connect 214 0 19 0;
#X connect 215 0 191 0;
#X connect 216 0 19 0;
#X connect 219 0 224 0;
#X connect 223 0 222 0;
#X connect 224 0 220 0;
#X connect 224 1 223 0;
#X connect 224 1 226 0;
#X connect 227 0 226 0;
#X coords 0 -1 1 1 544 217 1 388 -554;
#X restore -111 -210 pd mapping;
#N canvas 1 100 1918 932 pingpong 0;
#X obj 256 -139 cnv 15 521 510 empty empty empty 20 12 0 14 #f0f0f0
#404040 0;
#X obj 453 559 phasor~;
#X obj 453 502 vline~;
#X obj 453 720 outlet~ sig;
#X obj 496 603 tgl 15 0 empty empty empty 17 7 0 10 #fcfcfc #000000
#000000 0 1;
#X msg 496 626 \$1 5;
#X obj 496 651 line~;
#X obj 453 684 *~;
#X obj 496 581 r oo_preset2;
#X floatatom 543 -228 5 0 0 0 - - -, f 5;
#X msg 453 384 30 50 \, 8 800 50 \, 0 5 850;
#X msg 575 39 addcomma;
#X floatatom 543 -209 5 0 0 0 - - -, f 5;
#X obj 709 -402 loadbang;
#X msg 623 -15 set \$1 \$2;
#X text 575 -228 start freq.;
#X text 577 -209 end freq.;
#X floatatom 543 -190 5 0 0 0 - - -, f 5;
#X text 577 -191 dur.;
#X obj 560 -129 t b b b b b;
#X obj 560 -165 bng 15 250 50 0 empty empty empty 17 7 0 10 #fcfcfc
#000000 #000000;
#X obj 623 -58 f;
#X msg 710 -380 50;
#X obj 623 -37 pack f 50;
#X obj 463 152 pack f f 50;
#X obj 463 113 f;
#X obj 401 -260 loadbang;
#X obj 766 -392 loadbang;
#X obj 435 -321 loadbang;
#X msg 435 -296 8;
#X msg 463 179 add2 \$1 \$2 \$3;
#X obj 371 246 +;
#X obj 371 219 t b f;
#X msg 356 295 add2 0 5 \$1;
#X obj 356 271 f;
#X obj 433 291 r EVENT;
#X obj 720 -216 delay 500;
#X text 577 -167 refresh;
#X text 562 -76 1- go to start freq in x ms;
#X text 592 16 2- & 4-;
#X text 449 86 3- go to end freq. in dur. after x ms;
#X text 270 193 5- return to 0 after dur. + 2x;
#X obj 674 -162 tgl 15 0 empty empty empty 17 7 0 10 #fcfcfc #000000
#000000 0 1;
#X text 673 -182 0/1;
#X text 797 59 this frame only to build the message to vline~;
#X obj 379 630 env~;
#X floatatom 379 655 5 0 0 0 - - -, f 5;
#X msg 766 -367 30;
#X msg 401 -239 800;
#X connect 1 0 7 0;
#X connect 1 0 45 0;
#X connect 2 0 1 0;
#X connect 4 0 5 0;
#X connect 5 0 6 0;
#X connect 6 0 7 1;
#X connect 7 0 3 0;
#X connect 8 0 4 0;
#X connect 8 0 42 0;
#X connect 9 0 21 1;
#X connect 9 0 20 0;
#X connect 10 0 2 0;
#X connect 11 0 10 0;
#X connect 12 0 25 1;
#X connect 12 0 20 0;
#X connect 13 0 22 0;
#X connect 14 0 10 0;
#X connect 17 0 24 1;
#X connect 17 0 32 0;
#X connect 17 0 20 0;
#X connect 19 0 34 0;
#X connect 19 1 11 0;
#X connect 19 2 25 0;
#X connect 19 3 11 0;
#X connect 19 4 21 0;
#X connect 20 0 19 0;
#X connect 21 0 23 0;
#X connect 22 0 23 1;
#X connect 22 0 24 2;
#X connect 22 0 31 0;
#X connect 23 0 14 0;
#X connect 24 0 30 0;
#X connect 25 0 24 0;
#X connect 26 0 48 0;
#X connect 27 0 47 0;
#X connect 27 0 36 0;
#X connect 28 0 29 0;
#X connect 29 0 12 0;
#X connect 30 0 10 0;
#X connect 31 0 34 1;
#X connect 32 0 31 0;
#X connect 32 1 31 1;
#X connect 33 0 10 0;
#X connect 34 0 33 0;
#X connect 35 0 10 0;
#X connect 36 0 19 0;
#X connect 45 0 46 0;
#X connect 47 0 9 0;
#X connect 48 0 17 0;
#X coords 0 -1 1 1 177 116 1 525 -258;
#X restore 471 -53 pd pingpong;
#X floatatom 284 -399 5 0 0 0 - - -, f 5;
#X obj 284 -351 pack f f f, f 22;
#X floatatom 323 -399 5 0 0 0 - - -, f 5;
#X obj 323 -378 t b f;
#X floatatom 366 -399 5 0 0 0 - - -, f 5;
#X obj 366 -378 t b f;
#X obj 359 -308 bng 38 250 50 0 empty empty empty 17 7 0 10 #fcfcfc
#000000 #000000;
#X obj 359 -265 s EVENT;
#X obj 423 -430 key;
#X obj 423 -409 sel 32;
#X obj 323 -536 vsl 15 128 400 5000 0 0 empty empty empty 0 -9 0 10
#fcfcfc #000000 #000000 0 1;
#N canvas 1 77 1918 955 texture.frequency 0;
#X obj 383 71 noise~;
#X obj 335 384 +~;
#X obj 189 208 sig~;
#X floatatom 450 43 5 0 0 0 - - -, f 5;
#X obj 365 208 snapshot~;
#X obj 383 136 *~ 1;
#X msg 365 254 \$1 2;
#X obj 365 279 line~;
#X obj 365 -41 tgl 15 0 empty empty empty 17 7 0 10 #fcfcfc #000000
#000000 1 1;
#X obj 365 -13 metro 500;
#X text 177 192 f;
#X obj 195 460 snapshot~;
#N canvas 743 604 450 300 square 0;
#X obj 111 98 inlet~ freq;
#X obj 131 168 expr~ $v1 > $v2;
#X obj 220 75 inlet duty_cycle;
#X obj 220 130 / 100;
#X obj 142 294 outlet~ sound;
#X obj 345 101 inlet OnOff;
#X obj 148 261 *~;
#X msg 345 126 \$1 5;
#X obj 345 151 line~;
#X obj 117 128 phasor~;
#X obj 131 193 *~ 2;
#X obj 131 218 -~ 1;
#X obj 220 100 expr 100 - $f1;
#X connect 0 0 9 0;
#X connect 1 0 10 0;
#X connect 2 0 12 0;
#X connect 3 0 1 1;
#X connect 5 0 7 0;
#X connect 6 0 4 0;
#X connect 7 0 8 0;
#X connect 8 0 6 1;
#X connect 9 0 1 0;
#X connect 10 0 11 0;
#X connect 11 0 6 0;
#X connect 12 0 3 0;
#X coords 0 0 1 1 85 60 0;
#X restore 452 551 pd square;
#X obj 596 -186 loadbang;
#X msg 596 -154 10;
#X obj 607 211 *~ 1;
#X msg 746 434 0;
#X msg 779 435 1;
#X msg 817 435 0;
#X obj 365 320 *~;
#X msg 939 16 1;
#X text 978 -170 FREQUENCY;
#X msg 849 436 1;
#X msg 695 432 0;
#X obj 607 269 *~;
#X text 386 112 -1:1;
#X obj 503 516 tgl 15 0 empty empty empty 17 7 0 10 #fcfcfc #000000
#000000 1 1;
#X msg 450 19 10;
#X obj 607 181 osc~ 1.5;
#X obj 383 93 lop~ 1000;
#X text 387 152 -df:df;
#X text 611 227 -df:df;
#X text 349 410 f-df:f+df;
#X obj 450 65 / 100;
#X obj 450 90 *;
#X obj 695 409 sel 0 1 2, f 36;
#X text 484 42 %df;
#X text 434 123 df;
#X obj 733 503 s texture.frequency.oo_random_f;
#X obj 380 299 r texture.frequency.oo_random_f;
#X obj 837 526 s texture.frequency.oo_ramp_f;
#X obj 622 249 r texture.frequency.oo_ramp_f;
#X obj 1171 132 hsl 128 15 10 800 1 0 empty empty empty -2 -8 0 10
#fcfcfc #000000 #000000 9857 1;
#X floatatom 1308 131 5 0 0 0 - - -, f 5;
#X obj 183 410 r bangMonitor;
#X obj 740 680 outlet~ SIG;
#X obj 1125 278 s texture.frequency.type;
#X obj 695 373 r texture.frequency.type;
#X obj 1171 194 hsl 128 15 0 6 0 0 empty empty empty -2 -8 0 10 #fcfcfc
#000000 #000000 2117 1;
#X floatatom 1307 193 5 0 0 0 - - -, f 5;
#X obj 1346 188 s texture.frequency.ramp_freq;
#X obj 607 158 r texture.frequency.ramp_freq;
#X obj 1226 38 hsl 128 15 0 100 0 0 empty empty empty -2 -8 0 10 #fcfcfc
#000000 #000000 6350 1;
#X floatatom 1363 37 5 0 0 0 - - -, f 5;
#X obj 1416 34 s texture.frequency.dutycycle;
#X obj 477 464 r texture.frequency.dutycycle;
#X obj 195 485 s instfreq;
#X floatatom 981 242 5 0 0 0 - - -, f 5;
#X text 1015 241 inst. freq.;
#X obj 981 218 r instfreq;
#X obj 1171 101 hsl 128 15 1 50 0 0 empty empty empty -2 -8 0 10 #fcfcfc
#000000 #000000 2333 1;
#X floatatom 1308 101 5 0 0 0 - - -, f 5;
#X obj 1347 101 s texture.frequency.base_freq;
#X obj 189 176 r texture.frequency.base_freq;
#X obj 490 66 r texture.frequency.base_freq;
#X obj 1171 164 hsl 128 15 0 200 0 0 empty empty empty -2 -8 0 10 #fcfcfc
#000000 #000000 3175 1;
#X floatatom 1307 163 5 0 0 0 - - -, f 5;
#X text 160 144 constant frequency;
#X text 357 -103 random frequency;
#X text 1247 23 duty cycle;
#X text 1174 85 base frequency;
#X obj 1019 -113 inlet texture.frequency.base_freq;
#X obj 1274 -143 inlet texture.frequency.ramp_freq;
#X text 1171 148 width of freq. deviation (%);
#X obj 365 -73 loadbang;
#X obj 939 -14 loadbang;
#X obj 965 -68 loadbang;
#X msg 965 -38 10;
#X obj 885 -104 loadbang;
#X msg 885 -74 50;
#X obj 885 34 loadbang;
#X msg 885 64 50;
#X obj 503 494 loadbang;
#X obj 802 -63 loadbang;
#X obj 773 6 loadbang;
#X msg 773 36 1;
#X msg 802 -33 300;
#X obj 701 -172 inlet TYPE;
#X msg 908 437 0;
#X obj 1022 -87 r texture.frequency.base_freq__;
#X obj 701 -149 r texture.frequency.type__;
#X obj 1275 -121 r texture.frequency.ramp_freq__;
#X obj 1551 -123 r texture.frequency.dutycycle__;
#X obj 1348 132 s texture.frequency.random_rate;
#X obj 415 -38 r texture.frequency.random_rate;
#X obj 480 19 r texture.frequency.freq_deviation;
#X obj 1140 -199 inlet texture.frequency.freq_deviation;
#X obj 1141 -178 r texture.frequency.freq_deviation__;
#X obj 1349 159 s texture.frequency.freq_deviation;
#X obj 740 642 *~;
#X obj 842 583 line~;
#X msg 842 554 \$1 5;
#X msg 674 467 1;
#X text 598 133 cyclic frequency (ramp);
#X obj 1125 82 vradio 42 0 0 4 empty empty empty 0 -8 0 10 #fcfcfc
#000000 #000000 1;
#X text 1116 60 FREQUENCY;
#X text 1071 93 constant;
#X text 1082 138 random;
#X text 1094 180 ramp;
#X text 1100 220 OFF;
#X obj 1545 -144 inlet texture.frequency.dutycycle;
#X obj 1413 -61 r texture.frequency_randfreq_rate__;
#X obj 1411 -84 inlet texture.frequency.randfreq_rate;
#X text 1166 115 rate of freq. change (random);
#X text 1173 177 rate of freq. change (ramp);
#X connect 0 0 29 0;
#X connect 1 0 12 0;
#X connect 1 0 11 0;
#X connect 2 0 1 0;
#X connect 3 0 33 0;
#X connect 4 0 6 0;
#X connect 5 0 4 0;
#X connect 6 0 7 0;
#X connect 7 0 19 0;
#X connect 8 0 9 0;
#X connect 9 0 4 0;
#X connect 11 0 56 0;
#X connect 12 0 99 0;
#X connect 13 0 14 0;
#X connect 14 0 34 1;
#X connect 14 0 27 0;
#X connect 15 0 24 0;
#X connect 16 0 40 0;
#X connect 17 0 38 0;
#X connect 18 0 38 0;
#X connect 19 0 1 1;
#X connect 20 0 104 0;
#X connect 22 0 40 0;
#X connect 23 0 38 0;
#X connect 23 0 40 0;
#X connect 24 0 1 1;
#X connect 26 0 12 2;
#X connect 27 0 3 0;
#X connect 28 0 15 0;
#X connect 29 0 5 0;
#X connect 33 0 34 0;
#X connect 34 0 5 1;
#X connect 34 0 15 1;
#X connect 35 0 23 0;
#X connect 35 0 102 0;
#X connect 35 1 16 0;
#X connect 35 1 17 0;
#X connect 35 1 102 0;
#X connect 35 2 18 0;
#X connect 35 2 22 0;
#X connect 35 2 102 0;
#X connect 35 3 88 0;
#X connect 39 0 19 1;
#X connect 41 0 24 1;
#X connect 42 0 43 0;
#X connect 42 0 93 0;
#X connect 44 0 11 0;
#X connect 47 0 35 0;
#X connect 48 0 49 0;
#X connect 48 0 50 0;
#X connect 51 0 28 0;
#X connect 52 0 53 0;
#X connect 52 0 54 0;
#X connect 55 0 12 1;
#X connect 59 0 57 0;
#X connect 60 0 62 0;
#X connect 60 0 61 0;
#X connect 63 0 2 0;
#X connect 64 0 34 1;
#X connect 65 0 66 0;
#X connect 65 0 98 0;
#X connect 71 0 60 0;
#X connect 72 0 42 0;
#X connect 74 0 8 0;
#X connect 75 0 20 0;
#X connect 76 0 77 0;
#X connect 77 0 60 0;
#X connect 78 0 79 0;
#X connect 79 0 65 0;
#X connect 80 0 81 0;
#X connect 81 0 52 0;
#X connect 82 0 26 0;
#X connect 83 0 86 0;
#X connect 84 0 85 0;
#X connect 85 0 48 0;
#X connect 86 0 42 0;
#X connect 87 0 104 0;
#X connect 88 0 40 0;
#X connect 88 0 38 0;
#X connect 88 0 101 0;
#X connect 89 0 60 0;
#X connect 90 0 104 0;
#X connect 91 0 42 0;
#X connect 92 0 52 0;
#X connect 94 0 9 1;
#X connect 95 0 3 0;
#X connect 96 0 65 0;
#X connect 97 0 65 0;
#X connect 99 0 45 0;
#X connect 100 0 99 1;
#X connect 101 0 100 0;
#X connect 102 0 101 0;
#X connect 104 0 46 0;
#X connect 110 0 52 0;
#X connect 111 0 48 0;
#X connect 112 0 48 0;
#X coords 0 -1 1 1 424 243 1 975 22;
#X restore 698 -530 pd texture.frequency;
#N canvas 1 100 1918 932 texture.amplitude 0;
#X obj 304 704 *~;
#X obj 655 214 noise~;
#X obj 638 281 snapshot~;
#X obj 655 259 *~ 1;
#X msg 638 326 \$1 2;
#X obj 638 131 loadbang;
#X obj 638 156 tgl 15 0 empty empty empty 17 7 0 10 #fcfcfc #000000
#000000 1 1;
#X obj 638 179 metro 500;
#X obj 638 356 spigot;
#X msg 1424 59 1;
#X msg 1499 59 0;
#X msg 1390 62 0;
#X msg 1455 59 0;
#X msg 1532 59 1;
#X obj 397 413 line~;
#X obj 720 486 *~;
#X obj 720 426 phasor~ 1.5;
#X text 293 -71 AMPLITUDE;
#N canvas 737 436 450 300 rand 0;
#X obj 149 -84 bng 15 250 50 0 empty empty empty 17 7 0 10 #fcfcfc
#000000 #000000;
#X obj 144 -55 random 100;
#X obj 144 -30 * 5;
#X obj 144 -5 + 100;
#X obj 144 20 t b f;
#X floatatom 191 22 5 0 0 0 - - -, f 5;
#X obj 103 58 delay 2000;
#X obj 65 -130 inlet go;
#X obj 222 -127 inlet val;
#X obj 182 96 outlet;
#X connect 0 0 1 0;
#X connect 1 0 2 0;
#X connect 2 0 3 0;
#X connect 3 0 4 0;
#X connect 4 0 6 0;
#X connect 4 1 5 0;
#X connect 4 1 9 0;
#X connect 6 0 1 0;
#X connect 7 0 0 0;
#X connect 8 0 1 1;
#X connect 8 0 3 1;
#X restore 689 109 pd rand;
#X obj 689 84 loadbang;
#X obj 446 573 +~;
#X obj 516 688 snapshot~;
#X obj 1361 12 sel 0 1 2, f 36;
#X obj 1522 131 s texture.amplitude.oo_ramp_amp;
#X obj 735 463 r texture.amplitude.oo_ramp_amp;
#X obj 1436 103 s texture.amplitude.oo_random_amp;
#X obj 1361 156 s texture.amplitude.oo_constant_amp;
#X obj 397 156 r texture.amplitude.oo_constant_amp;
#X obj 671 331 r texture.amplitude.oo_random_amp;
#X obj 305 1081 outlet~ SOUND;
#X obj 304 -18 inlet~ SIG;
#X obj 1361 -13 r texture.amplitude.type;
#X obj 1118 401 loadbang;
#X obj 1236 752 s texture.amplitude.type;
#X floatatom 1053 733 5 0 0 0 - - -, f 5;
#X text 1087 733 inst. amp.;
#X obj 516 713 s instamp;
#X obj 1053 709 r instamp;
#X obj 1479 634 s texture.amplitude.freq_ramp_amp;
#X obj 1303 636 hsl 128 15 0 3.5 0 0 empty empty empty -2 -8 0 10 #fcfcfc
#000000 #000000 7257 1;
#X floatatom 1440 635 5 0 0 0 - - -, f 5;
#X obj 720 401 r texture.amplitude.freq_ramp_amp;
#X text 710 370 CYCLIC CHANGE OF AMPLITUDE;
#X text 382 133 CONSTANT AMPLITUDE;
#X text 602 66 RANDOM CHANGE OF AMPLITUDE;
#X obj 702 214 r texture.amplitude.width_random_amp;
#X obj 1302 583 hsl 128 15 0 1 0 0 empty empty empty -2 -8 0 10 #fcfcfc
#000000 #000000 12700 1;
#X obj 1483 579 s texture.amplitude.width_random_amp;
#X floatatom 1439 582 5 0 0 0 - - -, f 5;
#X text 1306 621 freq. of ramp;
#X obj 516 654 r bangMonitor;
#X msg 1178 426 1;
#X msg 1149 427 1;
#X obj 655 237 abs~;
#X obj 1287 -13 loadbang;
#X obj 870 -17 inlet amp;
#X obj 1302 521 hsl 128 15 0 1 0 0 empty empty empty -2 -8 0 10 #fcfcfc
#000000 #000000 12700 1;
#X floatatom 1440 520 5 0 0 0 - - -, f 5;
#X obj 1380 334 loadbang;
#X msg 1380 359 1;
#X obj 1596 453 loadbang;
#X msg 1596 478 1;
#X text 1307 566 width (0:1);
#X obj 1325 669 loadbang;
#X msg 1325 694 2;
#X msg 1287 12 1;
#X msg 1118 423 0;
#X msg 397 336 \$1 2;
#X obj 1271 102 f;
#X obj 553 789 loadbang;
#X obj 553 888 r EVENT;
#X obj 305 976 *~;
#X obj 1035 513 hradio 15 0 0 3 empty empty empty 0 -8 0 10 #fcfcfc
#000000 #000000 1;
#X obj 714 637 sel 0 1 2;
#X obj 553 965 *~;
#X msg 731 705 1 5;
#X obj 731 760 line~;
#X msg 332 869 1 5;
#X obj 332 924 line~;
#X msg 739 729 0 5;
#X msg 341 897 0 5;
#X obj 1035 324 r texture.amplitude.mode;
#X text 980 345 ici \, si le module fonctionne en continu \, à réception
d'un évènement \, ou s'il est coupé;
#X text 1018 496 cont/pulse/OFF;
#X obj 808 837 f;
#X text 1024 477 TRIGGER MODE;
#X obj 1236 497 vradio 57 0 0 3 empty empty empty 0 -8 0 10 #fcfcfc
#000000 #000000 0;
#X text 1232 458 AMPLITUDE;
#X text 1242 473 CHANGE;
#X text 1179 513 constant;
#X text 1192 574 random;
#X text 1206 630 ramp;
#X text 1311 505 amplitude;
#X text 1061 611 attack time (ms);
#X text 1061 633 decay time (ms);
#X text 1060 654 sustain time (ms);
#X text 1061 675 release time (ms);
#X text 1021 568 IF pulse: adsr param.;
#X obj 1361 37 t b b b;
#X floatatom 1271 142 5 0 0 0 - - -, f 5;
#X obj 1235 408 r texture.amplitude.type__;
#X obj 526 920 bng 15 250 50 0 empty empty empty 17 7 0 10 #fcfcfc
#000000 #000000;
#X obj 553 926 lyonpotpourri/adsr~;
#X msg 553 811 10 10 200 10;
#X obj 808 874 pack f f f f;
#X obj 619 832 r texture.amplitude.pulse.adsr;
#X floatatom 1024 634 5 0 0 0 - - -, f 5;
#X floatatom 1024 612 5 0 0 0 - - -, f 5;
#X floatatom 1024 656 5 0 0 0 - - -, f 5;
#X floatatom 1024 677 5 0 0 0 - - -, f 5;
#X msg 952 611 set_a \$1;
#X msg 952 634 set_d \$1;
#X msg 953 655 set_s \$1;
#X msg 953 677 set_r \$1;
#X obj 919 568 unpack f f f f;
#X connect 0 0 71 0;
#X connect 1 0 53 0;
#X connect 2 0 4 0;
#X connect 3 0 2 0;
#X connect 4 0 8 0;
#X connect 5 0 6 0;
#X connect 6 0 7 0;
#X connect 7 0 2 0;
#X connect 8 0 14 0;
#X connect 9 0 25 0;
#X connect 10 0 25 0;
#X connect 10 0 26 0;
#X connect 11 0 23 0;
#X connect 11 0 25 0;
#X connect 12 0 23 0;
#X connect 12 0 26 0;
#X connect 13 0 23 0;
#X connect 14 0 20 0;
#X connect 15 0 20 0;
#X connect 16 0 15 0;
#X connect 18 0 7 1;
#X connect 19 0 18 0;
#X connect 20 0 0 1;
#X connect 20 0 21 0;
#X connect 21 0 36 0;
#X connect 22 0 98 0;
#X connect 22 1 9 0;
#X connect 22 1 12 0;
#X connect 22 2 10 0;
#X connect 22 2 13 0;
#X connect 24 0 15 1;
#X connect 27 0 67 0;
#X connect 28 0 8 1;
#X connect 30 0 0 0;
#X connect 31 0 22 0;
#X connect 32 0 66 0;
#X connect 32 0 51 0;
#X connect 32 0 52 0;
#X connect 37 0 34 0;
#X connect 39 0 40 0;
#X connect 39 0 38 0;
#X connect 41 0 16 0;
#X connect 45 0 3 1;
#X connect 46 0 47 0;
#X connect 46 0 48 0;
#X connect 50 0 21 0;
#X connect 51 0 39 0;
#X connect 52 0 46 0;
#X connect 53 0 3 0;
#X connect 54 0 65 0;
#X connect 55 0 56 0;
#X connect 56 0 57 0;
#X connect 56 0 68 0;
#X connect 58 0 59 0;
#X connect 59 0 56 0;
#X connect 60 0 61 0;
#X connect 61 0 46 0;
#X connect 63 0 64 0;
#X connect 64 0 39 0;
#X connect 65 0 26 0;
#X connect 66 0 86 0;
#X connect 67 0 14 0;
#X connect 68 0 26 0;
#X connect 68 0 99 0;
#X connect 69 0 103 0;
#X connect 70 0 102 0;
#X connect 71 0 29 0;
#X connect 72 0 73 0;
#X connect 73 0 77 0;
#X connect 73 0 79 0;
#X connect 73 1 75 0;
#X connect 73 1 80 0;
#X connect 73 2 79 0;
#X connect 73 2 80 0;
#X connect 74 0 71 1;
#X connect 75 0 76 0;
#X connect 76 0 74 1;
#X connect 77 0 78 0;
#X connect 78 0 71 1;
#X connect 79 0 76 0;
#X connect 80 0 78 0;
#X connect 81 0 72 0;
#X connect 84 0 104 0;
#X connect 86 0 33 0;
#X connect 98 0 68 0;
#X connect 98 1 59 0;
#X connect 98 2 11 0;
#X connect 100 0 86 0;
#X connect 101 0 102 0;
#X connect 102 0 74 0;
#X connect 103 0 102 0;
#X connect 103 0 114 0;
#X connect 104 0 102 0;
#X connect 106 0 111 0;
#X connect 107 0 110 0;
#X connect 108 0 112 0;
#X connect 109 0 113 0;
#X connect 110 0 102 0;
#X connect 111 0 102 0;
#X connect 112 0 102 0;
#X connect 113 0 102 0;
#X connect 114 0 107 0;
#X connect 114 1 106 0;
#X connect 114 2 108 0;
#X connect 114 3 109 0;
#X coords 0 -1 1 1 466 322 1 1014 434;
#X restore 698 -258 pd texture.amplitude;
#X floatatom 447 -429 5 0 0 0 - - -, f 5;
#X obj 1200 -300 cnv 15 377 382 empty empty empty 20 12 0 14 #e0e0e0
#404040 0;
#N canvas 1 55 1918 977 wave_noise 0;
#X obj 90 571 osc~;
#X obj 310 165 hsl 128 15 0 200 0 0 empty empty empty -2 -8 0 10 #fcfcfc
#000000 #000000 0 1;
#X obj 90 696 *~;
#X obj 105 669 line~;
#X obj 299 873 +~;
#X obj 667 555 noise~;
#X obj 667 718 *~;
#X obj 667 582 lop~ 500;
#X obj 667 604 lop~ 500;
#X obj 667 625 lop~ 500;
#X floatatom 452 190 5 0 0 0 - - -, f 5;
#X obj 452 166 hsl 128 15 0 1 0 0 empty empty empty -2 -8 0 10 #fcfcfc
#000000 #000000 0 1;
#X floatatom 310 189 5 0 0 0 - - -, f 5;
#X obj 310 107 hradio 30 0 0 3 empty empty empty 0 -8 0 10 #fcfcfc
#000000 #000000 0;
#X obj 299 648 expr~ $v1 > $v2;
#X obj 386 622 / 100;
#X obj 299 801 *~;
#X obj 729 677 line~;
#X obj 299 673 *~ 2;
#X obj 299 698 -~ 1;
#X obj 386 596 expr 100 - $f1;
#X obj 309 239 hsl 128 15 0 100 0 0 empty empty empty -2 -8 0 10 #fcfcfc
#000000 #000000 0 1;
#X floatatom 309 266 5 0 0 0 - - -, f 5;
#X text 313 86 Off Sin Square;
#X obj 299 570 phasor~;
#X text 316 215 Square duty cycle;
#X obj 509 1228 outlet~;
#X text 310 144 Freq sin / square;
#X obj 749 175 r oo_preset3;
#X obj 557 259 tgl 15 0 empty empty empty 17 7 0 10 #fcfcfc #000000
#000000 0 1;
#X text 554 238 0/1;
#X obj 165 128 r wave_noise.freq;
#X obj 149 -6 r wave_noise.mode;
#X obj 131 207 r wave_noise.dutycycle;
#X text 656 538 Gaussian noise;
#X text 78 552 Sine wave;
#X text 291 551 Square wave;
#X text 426 621 duty cycle;
#X obj -223 199 sel 0 1 2, f 21;
#X text -226 176 0-off \, 1-sine \, 2-square;
#X obj 314 774 line~;
#X msg -246 248 0;
#X msg -88 370 1;
#X msg -47 370 1;
#X obj 149 31 f;
#X obj 85 58 sel 0 1;
#X msg 85 83 0;
#X text 25 13 0/1 toggle switches between 0 (off) & the last stored
value;
#X obj -205 277 s wave_noise.sinegen.amp;
#X obj -182 336 s wave_noise.squaregen.amp;
#X obj -88 399 s wave_noise.noisegen.amp;
#X msg -218 305 0;
#X msg -124 370 0;
#X msg 105 643 \$1 5;
#X msg 314 753 \$1 5;
#X msg 729 651 \$1 5;
#X obj 105 613 r wave_noise.sinegen.amp;
#X obj 314 728 r wave_noise.squaregen.amp;
#X obj 729 628 r wave_noise.noisegen.amp;
#X obj 156 690 env~;
#X floatatom 156 715 5 0 0 0 - - -, f 5;
#X msg -205 248 1;
#X msg -164 248 0;
#X msg -182 305 0;
#X msg -141 305 1;
#X obj 299 1005 *~;
#X msg 314 948 \$1 5;
#X obj 314 973 line~;
#X msg 682 849 \$1 5;
#X obj 682 874 line~;
#X obj 667 902 *~;
#X text 460 133 relative amplitude;
#X text 471 150 wave <-> noise;
#X obj 314 922 expr 1 - $f1;
#X obj 667 790 *~ 5;
#X text 696 790 compensate volume loss through filtering;
#X obj 634 132 r wave_noise.relativeamp;
#X obj 524 1132 r EVENT;
#X obj 524 1167 lyonpotpourri/adsr~;
#X obj 509 1200 *~;
#X obj 509 1098 +~;
#X obj -168 31 loadbang;
#X obj 637 1066 f;
#X text 411 325 attack time (ms);
#X text 411 347 decay time (ms);
#X text 410 368 sustain time (ms);
#X text 411 389 release time (ms);
#X msg -168 53 10 10 200 10;
#X obj -102 106 unpack f f f f;
#X obj 637 1103 pack f f f f;
#X obj 64 246 r wave_noise.refresh;
#X obj -102 74 r wave_noise.adsr;
#X text 293 351 pulse params;
#X text 309 368 (ADSR);
#X text -144 7 ADSR;
#X obj 567 1104 bng 15 250 50 0 empty empty empty 17 7 0 10 #fcfcfc
#000000 #000000;
#X floatatom 372 344 5 0 0 0 - - -, f 5;
#X floatatom 372 322 5 0 0 0 - - -, f 5;
#X floatatom 372 366 5 0 0 0 - - -, f 5;
#X floatatom 372 387 5 0 0 0 - - -, f 5;
#X msg 408 321 set_a \$1;
#X msg 408 344 set_d \$1;
#X msg 409 365 set_s \$1;
#X msg 409 387 set_r \$1;
#X connect 0 0 2 0;
#X connect 1 0 12 0;
#X connect 1 0 0 0;
#X connect 1 0 24 0;
#X connect 2 0 4 0;
#X connect 2 0 59 0;
#X connect 3 0 2 1;
#X connect 4 0 65 0;
#X connect 5 0 7 0;
#X connect 6 0 74 0;
#X connect 7 0 8 0;
#X connect 8 0 9 0;
#X connect 9 0 6 0;
#X connect 11 0 10 0;
#X connect 11 0 68 0;
#X connect 11 0 73 0;
#X connect 13 0 38 0;
#X connect 14 0 18 0;
#X connect 15 0 14 1;
#X connect 16 0 4 0;
#X connect 17 0 6 1;
#X connect 18 0 19 0;
#X connect 19 0 16 0;
#X connect 20 0 15 0;
#X connect 21 0 22 0;
#X connect 21 0 20 0;
#X connect 24 0 14 0;
#X connect 28 0 29 0;
#X connect 29 0 45 0;
#X connect 31 0 1 0;
#X connect 32 0 44 0;
#X connect 33 0 21 0;
#X connect 38 0 41 0;
#X connect 38 0 51 0;
#X connect 38 0 52 0;
#X connect 38 1 61 0;
#X connect 38 1 63 0;
#X connect 38 1 42 0;
#X connect 38 2 62 0;
#X connect 38 2 64 0;
#X connect 38 2 43 0;
#X connect 40 0 16 1;
#X connect 41 0 48 0;
#X connect 42 0 50 0;
#X connect 43 0 50 0;
#X connect 44 0 13 0;
#X connect 45 0 46 0;
#X connect 45 1 44 0;
#X connect 46 0 13 0;
#X connect 51 0 49 0;
#X connect 52 0 50 0;
#X connect 53 0 3 0;
#X connect 54 0 40 0;
#X connect 55 0 17 0;
#X connect 56 0 53 0;
#X connect 57 0 54 0;
#X connect 58 0 55 0;
#X connect 59 0 60 0;
#X connect 61 0 48 0;
#X connect 62 0 48 0;
#X connect 63 0 49 0;
#X connect 64 0 49 0;
#X connect 65 0 80 0;
#X connect 66 0 67 0;
#X connect 67 0 65 1;
#X connect 68 0 69 0;
#X connect 69 0 70 1;
#X connect 70 0 80 1;
#X connect 73 0 66 0;
#X connect 74 0 70 0;
#X connect 76 0 11 0;
#X connect 77 0 78 0;
#X connect 78 0 79 1;
#X connect 79 0 26 0;
#X connect 80 0 79 0;
#X connect 81 0 87 0;
#X connect 82 0 89 0;
#X connect 87 0 88 0;
#X connect 88 0 97 0;
#X connect 88 1 96 0;
#X connect 88 2 98 0;
#X connect 88 3 99 0;
#X connect 89 0 78 0;
#X connect 91 0 88 0;
#X connect 95 0 78 0;
#X connect 96 0 101 0;
#X connect 97 0 100 0;
#X connect 98 0 102 0;
#X connect 99 0 103 0;
#X connect 100 0 78 0;
#X connect 101 0 78 0;
#X connect 102 0 78 0;
#X connect 103 0 78 0;
#X coords 0 -1 1 1 352 356 1 287 55;
#X restore 1214 -284 pd wave_noise;
#X obj 366 -537 vsl 15 128 0 1 0 0 empty empty empty 0 -9 0 10 #fcfcfc
#000000 #000000 0 1;
#X obj 284 -537 vsl 15 128 0 100 0 0 empty empty empty 0 -9 0 10 #fcfcfc
#000000 #000000 0 1;
#X obj 746 570 *~;
#X obj 698 570 *~;
#X obj 568 411 vsl 15 128 0 1 0 0 empty empty empty 0 -9 0 10 #fcfcfc
#000000 #000000 12065 1;
#X text 562 357 MASTER VOLUME;
#X floatatom 587 527 5 0 0 0 - - -, f 5;
#X obj 568 383 r MASTERVOL;
#N canvas 1 55 1918 977 Monitor 0;
#N canvas 0 22 450 300 (subpatch) 0;
#X array TAB 1000 float 3 black black;
#A 0 0 0 0 0 0 0 0 0 0 0 0 0 0 0 0 0 0 0 0 0 0 0 0 0 0 0 0 0 0 0 0
0 0 0 0 0 0 0 0 0 0 0 0 0 0 0 0 0 0 0 0 0 0 0 0 0 0 0 0 0 0 0 0 0 0
0 0 0 0 0 0 0 0 0 0 0 0 0 0 0 0 0 0 0 0 0 0 0 0 0 0 0 0 0 0 0 0 0 0
0 0 0 0 0 0 0 0 0 0 0 0 0 0 0 0 0 0 0 0 0 0 0 0 0 0 0 0 0 0 0 0 0 0
0 0 0 0 0 0 0 0 0 0 0 0 0 0 0 0 0 0 0 0 0 0 0 0 0 0 0 0 0 0 0 0 0 0
0 0 0 0 0 0 0 0 0 0 0 0 0 0 0 0 0 0 0 0 0 0 0 0 0 0 0 0 0 0 0 0 0 0
0 0 0 0 0 0 0 0 0 0 0 0 0 0 0 0 0 0 0 0 0 0 0 0 0 0 0 0 0 0 0 0 0 0
0 0 0 0 0 0 0 0 0 0 0 0 0 0 0 0 0 0 0 0 0 0 0 0 0 0 0 0 0 0 0 0 0 0
0 0 0 0 0 0 0 0 0 0 0 0 0 0 0 0 0 0 0 0 0 0 0 0 0 0 0 0 0 0 0 0 0 0
0 0 0 0 0 0 0 0 0 0 0 0 0 0 0 0 0 0 0 0 0 0 0 0 0 0 0 0 0 0 0 0 0 0
0 0 0 0 0 0 0 0 0 0 0 0 0 0 0 0 0 0 0 0 0 0 0 0 0 0 0 0 0 0 0 0 0 0
0 0 0 0 0 0 0 0 0 0 0 0 0 0 0 0 0 0 0 0 0 0 0 0 0 0 0 0 0 0 0 0 0 0
0 0 0 0 0 0 0 0 0 0 0 0 0 0 0 0 0 0 0 0 0 0 0 0 0 0 0 0 0 0 0 0 0 0
0 0 0 0 0 0 0 0 0 0 0 0 0 0 0 0 0 0 0 0 0 0 0 0 0 0 0 0 0 0 0 0 0 0
0 0 0 0 0 0 0 0 0 0 0 0 0 0 0 0 0 0 0 0 0 0 0 0 0 0 0 0 0 0 0 0 0 0
0 0 0 0 0 0 0 0 0 0 0 0 0 0 0 0 0 0 0 0 0 0 0 0 0 0 0 0 0 0 0 0 0 0
0 0 0 0 0 0 0 0 0 0 0 0 0 0 0 0 0 0 0 0 0 0 0 0 0 0 0 0 0 0 0 0 0 0
0 0 0 0 0 0 0 0 0 0 0 0 0 0 0 0 0 0 0 0 0 0 0 0 0 0 0 0 0 0 0 0 0 0
0 0 0 0 0 0 0 0 0 0 0 0 0 0 0 0 0 0 0 0 0 0 0 0 0 0 0 0 0 0 0 0 0 0
0 0 0 0 0 0 0 0 0 0 0 0 0 0 0 0 0 0 0 0 0 0 0 0 0 0 0 0 0 0 0 0 0 0
0 0 0 0 0 0 0 0 0 0 0 0 0 0 0 0 0 0 0 0 0 0 0 0 0 0 0 0 0 0 0 0 0 0
0 0 0 0 0 0 0 0 0 0 0 0 0 0 0 0 0 0 0 0 0 0 0 0 0 0 0 0 0 0 0 0 0 0
0 0 0 0 0 0 0 0 0 0 0 0 0 0 0 0 0 0 0 0 0 0 0 0 0 0 0 0 0 0 0 0 0 0
0 0 0 0 0 0 0 0 0 0 0 0 0 0 0 0 0 0 0 0 0 0 0 0 0 0 0 0 0 0 0 0 0 0
0 0 0 0 0 0 0 0 0 0 0 0 0 0 0 0 0 0 0 0 0 0 0 0 0 0 0 0 0 0 0 0 0 0
0 0 0 0 0 0 0 0 0 0 0 0 0 0 0 0 0 0 0 0 0 0 0 0 0 0 0 0 0 0 0 0 0 0
0 0 0 0 0 0 0 0 0 0 0 0 0 0 0 0 0 0 0 0 0 0 0 0 0 0 0 0 0 0 0 0 0 0
0 0 0 0 0 0 0 0 0 0 0 0 0 0 0 0 0 0 0 0 0 0 0 0 0 0 0 0 0 0 0 0 0 0
0 0 0 0 0 0 0 0 0 0 0 0 0 0 0 0 0 0 0 0 0 0 0 0 0 0 0 0 0 0 0 0 0 0
0 0 0 0 0 0 0 0 0 0 0 0 0 0 0 0 0;
#X coords 0 1.3 1000 -1.3 200 140 1;
#X restore 137 81 graph;
#X obj 28 165 tabwrite~ TAB;
#X obj 39 132 metro 100;
#X obj 39 110 tgl 15 0 empty empty empty 17 7 0 10 #fcfcfc #000000
#000000 0 1;
#X floatatom 90 109 5 0 0 0 - - -, f 5;
#X obj 400 208 metro 100;
#X obj 400 186 tgl 15 0 empty empty empty 17 7 0 10 #fcfcfc #000000
#000000 1 1;
#X floatatom 451 185 5 0 0 0 - - -, f 5;
#X obj 400 231 s bangMonitor;
#X obj 400 160 loadbang;
#X text 499 223 sent to monitor inst. freq & amp of textures;
#X obj 316 394 env~;
#X floatatom 316 419 5 0 0 0 - - -, f 5;
#X obj 28 36 inlet~ audio;
#X text 352 419 RMS env (dB);
#X connect 2 0 1 0;
#X connect 3 0 2 0;
#X connect 4 0 2 1;
#X connect 5 0 8 0;
#X connect 6 0 5 0;
#X connect 7 0 5 1;
#X connect 9 0 6 0;
#X connect 11 0 12 0;
#X connect 13 0 1 0;
#X connect 13 0 11 0;
#X coords 0 -1 1 1 121 43 1 311 396;
#X restore 67 280 pd Monitor;
#X text 398 -449 space to fire!;
#X text 274 -601 OR SIMULATE SOME DATA...;
#X msg 323 -576 2000;
#X msg 323 -556 500;
#X text -61 49 *preset 2: EVENT => ping-pong / spec centroid > position
;
#X text -61 32 *preset 1: EVENT => threshold on spec centroid > 2 textures
;
#X text 68 260 connect any audio signal to monitor it;
#X text -61 66 *preset 3: EVENT => sin/square -> noise continuum;
#X text 60 83 spec. centroid > wave/noise balance;
#X text 60 100 SFM > freq;
#X obj 698 110 +~;
#N canvas 1 55 1918 977 spatial 0;
#X obj 542 1064 outlet~ amp_vib1;
#X obj 585 1040 outlet~ amp_vib2;
#X obj 557 440 vbap;
#X obj 695 159 hsl 128 15 0 240 0 0 empty hsl_rcv empty -2 -8 0 10
#fcfcfc #000000 #000000 0 1;
#X obj 557 406 t b f;
#X msg 557 682 \$1 5;
#X obj 557 704 line~;
#X msg 600 682 \$1 5;
#X obj 600 704 line~;
#X obj 430 97 loadbang;
#X text 681 159 L;
#X text 834 159 R;
#X obj 452 357 spigot;
#X obj 485 327 r spatial.oo_vbap;
#X floatatom 849 171 5 0 0 0 - - -, f 5;
#X obj 681 210 vsl 8 40 0 1 0 0 empty empty empty 0 -9 0 10 #fcfcfc
#000000 #000000 3900 1;
#X obj 723 210 vsl 8 40 0 1 0 0 empty empty empty 0 -9 0 10 #fcfcfc
#000000 #000000 0 1;
#X obj 542 858 *~;
#X obj 585 858 *~;
#X obj 886 237 s spatial_oo;
#X obj 840 196 tgl 15 0 empty empty empty 17 7 0 10 #fcfcfc #000000
#000000 0 1;
#X text 858 195 on/off;
#X obj 135 641 inlet~ SIG;
#X text 192 731 if spatial OFF -> directly send input;
#X text 192 748 if spatial ON -> multiply input by gains & send;
#X obj 178 708 r spatial_oo;
#X obj 911 195 r spatial_oo__;
#N canvas 1 55 1918 977 vbap_init 0;
#X obj 687 -996 + 1;
#X obj 687 -971 sel 1 2 3 4 5 6, f 291;
#X msg 1297 -877 set define_loudspeakers 2 -0 120 240;
#X msg 1755 -237 define_loudspeakers 2 -0 120 240;
#X obj 1755 -205 outlet;
#X msg 1355 -809 240;
#X obj 1355 -788 s spatial.angle_max;
#X obj 1326 -742 s spatial.oo_vbap;
#X msg 1326 -765 1;
#X obj 1268 -900 t b b b b b, f 20;
#X obj 1645 -790 s spatial.angle_max;
#X obj 1616 -744 s spatial.oo_vbap;
#X msg 1616 -767 1;
#X obj 1558 -902 t b b b b b, f 20;
#X msg 1587 -879 set define_loudspeakers 2 -0 90 180 270;
#X msg 1645 -811 270;
#X msg 1936 -810 240;
#X obj 1936 -789 s spatial.angle_max;
#X obj 1907 -743 s spatial.oo_vbap;
#X msg 1907 -766 1;
#X obj 1849 -901 t b b b b b, f 20;
#X obj 2226 -793 s spatial.angle_max;
#X obj 2197 -747 s spatial.oo_vbap;
#X msg 2197 -770 1;
#X obj 2139 -905 t b b b b b, f 20;
#X msg 2226 -814 270;
#X msg 1878 -878 set define_loudspeakers 2 -0 72 144 216 288;
#X msg 2168 -882 set define_loudspeakers 2 -0 60 120 180 240 300;
#X text 1258 -595 set max angle;
#X text 1243 -629 more than 2 spks ->;
#X text 1258 -578 turn vbap on;
#X text 1258 -561 set spk positions;
#X obj 687 -1026 r spatial.nb_spks;
#X obj 800 -839 s spatial_oo;
#X msg 800 -862 0;
#X text 755 -883 1 or 2 speakers -> bypass vbap;
#X msg 1675 -851 1;
#X obj 1675 -828 s spatial_oo;
#X obj 1966 -827 s spatial_oo;
#X msg 1966 -850 1;
#X msg 2256 -854 1;
#X obj 2256 -831 s spatial_oo;
#X msg 1385 -853 1;
#X obj 1385 -830 s spatial_oo;
#X text 1258 -612 turn spatial on;
#X connect 0 0 1 0;
#X connect 1 0 34 0;
#X connect 1 1 34 0;
#X connect 1 2 9 0;
#X connect 1 3 13 0;
#X connect 1 4 20 0;
#X connect 1 5 24 0;
#X connect 2 0 3 0;
#X connect 3 0 4 0;
#X connect 5 0 6 0;
#X connect 8 0 7 0;
#X connect 9 0 3 0;
#X connect 9 1 2 0;
#X connect 9 2 8 0;
#X connect 9 3 5 0;
#X connect 9 4 42 0;
#X connect 12 0 11 0;
#X connect 13 0 3 0;
#X connect 13 1 14 0;
#X connect 13 2 12 0;
#X connect 13 3 15 0;
#X connect 13 4 36 0;
#X connect 14 0 3 0;
#X connect 15 0 10 0;
#X connect 16 0 17 0;
#X connect 19 0 18 0;
#X connect 20 0 3 0;
#X connect 20 1 26 0;
#X connect 20 2 19 0;
#X connect 20 3 16 0;
#X connect 20 4 39 0;
#X connect 23 0 22 0;
#X connect 24 0 3 0;
#X connect 24 1 27 0;
#X connect 24 2 23 0;
#X connect 24 3 25 0;
#X connect 24 4 40 0;
#X connect 25 0 21 0;
#X connect 26 0 3 0;
#X connect 27 0 3 0;
#X connect 32 0 0 0;
#X connect 34 0 33 0;
#X connect 36 0 37 0;
#X connect 39 0 38 0;
#X connect 40 0 41 0;
#X connect 42 0 43 0;
#X restore 556 363 pd vbap_init;
#X msg 430 124 2;
#X text 875 640 these are used in connection with spatial.oo_vbap;
#X text 875 657 to turn channels off when not using vbap;
#X obj 430 203 s spatial.nb_spks;
#X obj 695 184 s spatial.angle;
#X obj 452 306 r spatial.angle;
#X obj 77 177 vline~;
#X obj 77 251 snapshot~;
#X obj 180 206 metro 10;
#X text 423 28 scale according to max angle;
#X obj 77 144 r spatial.traj;
#X obj 724 114 vradio 15 0 0 2 empty empty empty 0 -8 0 10 #fcfcfc
#000000 #000000 0;
#X obj 180 177 r spatial.auto;
#X obj 621 11 sel 0 1;
#X msg 621 51 0;
#X obj 621 76 s spatial.auto;
#X obj 817 -29 r spatial.mode__;
#X obj 722 73 s spatial.auto;
#X msg 722 48 1;
#X obj 473 -11 r spatial.norm_angle;
#X obj 488 10 r spatial.angle_max;
#X obj 473 45 *;
#X text 42 -119 TO DO: traj \, continuously;
#X text 742 113 man. (or data-driven);
#X text 742 129 auto (= lists);
#X text -18 128 EXPECTED FORMAT: target time \, target time delay;
#X obj 510 361 tgl 15 0 empty empty empty 17 7 0 10 #fcfcfc #000000
#000000 1 1;
#X obj 77 287 s spatial.norm_angle;
#X obj 106 771 *~;
#X obj 130 822 expr 1-$f1;
#X obj 117 861 *~;
#X text 322 108 init with 2 spks;
#X obj 557 465 route 0 1, f 15;
#X connect 2 0 60 0;
#X connect 3 0 14 0;
#X connect 3 0 32 0;
#X connect 4 0 2 0;
#X connect 4 1 2 1;
#X connect 5 0 6 0;
#X connect 6 0 17 1;
#X connect 7 0 8 0;
#X connect 8 0 18 1;
#X connect 9 0 28 0;
#X connect 12 0 4 0;
#X connect 13 0 12 1;
#X connect 13 0 54 0;
#X connect 17 0 0 0;
#X connect 18 0 1 0;
#X connect 20 0 19 0;
#X connect 22 0 56 0;
#X connect 22 0 58 0;
#X connect 25 0 56 1;
#X connect 25 0 57 0;
#X connect 26 0 20 0;
#X connect 27 0 2 0;
#X connect 28 0 31 0;
#X connect 33 0 12 0;
#X connect 34 0 35 0;
#X connect 35 0 55 0;
#X connect 36 0 35 0;
#X connect 38 0 34 0;
#X connect 39 0 41 0;
#X connect 40 0 36 0;
#X connect 41 0 42 0;
#X connect 41 1 46 0;
#X connect 42 0 43 0;
#X connect 44 0 39 0;
#X connect 46 0 45 0;
#X connect 47 0 49 0;
#X connect 48 0 49 1;
#X connect 49 0 3 0;
#X connect 56 0 17 0;
#X connect 56 0 18 1;
#X connect 57 0 58 1;
#X connect 58 0 0 0;
#X connect 58 0 1 0;
#X connect 60 0 5 0;
#X connect 60 0 15 0;
#X connect 60 1 7 0;
#X connect 60 1 16 0;
#X coords 0 -1 1 1 249 168 1 672 96;
#X restore 698 207 pd spatial;
#X text 60 134 (change direction at each event);
#X text -61 117 *preset 4: EVENT => set a texture & sweep the vibrators
;
#X msg 356 -577 4000;
#N canvas 184 254 808 529 init 0;
#X obj 397 65 loadbang;
#X msg 417 134 \; pd dsp 1;
#X obj 306 253 mediasettings/audiosettings;
#X msg 343 191 params @input 5 2;
#X msg 361 215 params @output 5 2;
#X obj 417 107 delay 100;
#X connect 0 0 3 0;
#X connect 0 0 4 0;
#X connect 0 0 5 0;
#X connect 3 0 2 0;
#X connect 4 0 2 0;
#X connect 5 0 1 0;
#X restore -70 -402 pd init;
#N canvas 47 131 1654 596 analyse_audio 0;
#X msg 297 220 start;
#X obj 297 195 t b b, f 8;
#X obj 297 257 readsf~;
#X obj 476 174 bng 15 250 50 0 empty empty empty 17 7 0 10 #fcfcfc
#000000 #000000;
#X obj 164 518 bng 41 50 50 0 empty empty empty 17 7 0 10 #fcfcfc #000000
#000000;
#X obj 251 526 unpack f f f;
#X floatatom 285 566 5 0 0 0 - - -, f 5;
#X obj 285 588 expr $f1*100/127;
#X text 386 587 convert to 0:127;
#X obj 513 586 tID/specCentroid~ 512;
#X obj 719 584 tID/specFlatness~ 512;
#X obj 178 17 vradio 15 0 0 4 empty empty empty 0 -8 0 10 #fcfcfc #000000
#000000 0;
#X text 196 46 pre-recorded;
#X text 504 174 launch playback;
#X text 289 546 velocity;
#X obj 285 646 outlet;
#X obj 513 642 outlet;
#X obj 719 641 outlet;
#X obj -18 324 loadbang;
#X text 285 671 loudness;
#X text 719 663 spectral flatness;
#X text 511 664 spectral centroid;
#X obj 295 617 s loudness;
#X obj 525 615 s spectralcentroid;
#X floatatom 173 123 14 0 0 0 - - -, f 14;
#X obj 735 612 s spectralflatness;
#X obj 173 99 r loudness;
#X floatatom 268 123 14 0 0 0 - - -, f 14;
#X obj 268 99 r spectralcentroid;
#X floatatom 363 123 14 0 0 0 - - -, f 14;
#X obj 363 99 r spectralflatness;
#X text 377 142 flatness;
#X text 280 142 centroid;
#X text 187 142 loudness;
#X obj 235 735 r loudness;
#X obj 304 766 t b f;
#X obj 304 734 r spectralcentroid;
#X obj 421 766 t b f;
#X obj 421 734 r spectralflatness;
#X obj 221 915 outlet pack;
#X obj 221 842 pack f f f;
#X obj 69 179 env~;
#X floatatom 303 16 5 0 0 0 - - -, f 5;
#X obj 79 45 adc~ 1 2;
#X text 195 16 live (audio in 1);
#X text 195 31 live (audio in 2);
#X floatatom 404 26 5 0 0 0 - - -, f 5;
#X obj 867 241 t b f;
#X msg 894 266 set minvel \$1;
#X msg 867 298 minvel 8;
#X msg 1153 406 thresh 5 9;
#X floatatom 404 47 5 0 0 0 - - -, f 5;
#X obj 502 47 s arthurdetect_lowthresh;
#X obj 502 27 s arthurdetect_minvel;
#X obj 867 216 r arthurdetect_minvel;
#X floatatom 404 69 5 0 0 0 - - -, f 5;
#X obj 502 68 s arthurdetect_highthresh;
#X obj 1018 212 r arthurdetect_lowthresh;
#X obj 1186 214 r arthurdetect_highthresh;
#X obj 1186 239 t b f;
#X obj 1153 275 pack f f;
#X msg 1153 349 set thresh \$1 \$2;
#X obj 1153 377 t b a;
#X text 435 26 min vel;
#X text 435 47 low thresh;
#X text 435 68 high thresh;
#X text 373 3 IF arthur's detection;
#X obj 450 86 bng 15 250 50 0 empty empty empty 17 7 0 10 #fcfcfc #000000
#000000;
#X text 469 84 reset;
#X obj 569 -67 r arthurdetect_minvel_;
#X obj 654 -29 r arthurdetect_lowthresh_;
#X obj 859 -18 r arthurdetect_highthresh_;
#X obj 100 178 env~;
#X floatatom 303 32 5 0 0 0 - - -, f 5;
#X obj 313 290 env~;
#X floatatom 303 49 5 0 0 0 - - -, f 5;
#X obj -146 406 s arthurdetect_minvel;
#X msg -146 383 8;
#X msg -1 408 5;
#X obj -1 430 s arthurdetect_lowthresh;
#X msg -33 457 9;
#X obj -33 478 s arthurdetect_highthresh;
#X obj -146 427 s arthurdetect_minvel_;
#X obj -1 450 s arthurdetect_lowthresh_;
#X obj -33 498 s arthurdetect_highthresh_;
#X msg -24 698 learn 0;
#X msg -24 758 write templates.txt;
#X msg -24 788 read templates.txt;
#X msg -24 608 debounce 0;
#X msg -24 638 learn 10;
#X msg 462 845 /hit;
#X obj 533 775 r loudness;
#X obj 602 806 t b f;
#X obj 602 774 r spectralcentroid;
#X obj 719 806 t b f;
#X obj 719 774 r spectralflatness;
#X obj 509 913 print;
#X obj 519 882 pack s f f f;
#X obj 526 803 t b f;
#X floatatom 592 723 5 0 0 0 - - -, f 5;
#X floatatom 640 728 5 0 0 0 - - -, f 5;
#X floatatom 709 724 5 0 0 0 - - -, f 5;
#X obj 221 867 cyclone/prepend /hit;
#X text -235 233 zexy has trouble installing on RPi \, so make sure
multiplex~.pd_linux is in the working directory;
#X msg 355 236 open examples/sample_guitar.wav;
#X msg 354 215 open examples/deluxe_gtr.wav;
#X obj 268 76 tgl 15 0 empty empty empty 17 7 0 10 #fcfcfc #000000
#000000 0 1;
#X obj 197 392 *~;
#X msg 236 345 \$1 10;
#X obj 236 366 line;
#X text 285 76 listen...;
#X obj 189 189 sel 0 1 2;
#X msg 202 228 stop;
#X obj 178 -48 inlet InputSelection;
#X obj 164 496 bonk~ -npts 256;
#X obj 69 238 multiplex~ 1 2 3 4;
#X obj -56 278 env~;
#X floatatom -56 303 5 0 0 0 - - -, f 5;
#X text 20 258 1-in1 / 2-in2 / 3-pre-rec / 4-none;
#X obj 10 -28 r InputSelection__;
#X connect 0 0 2 0;
#X connect 1 0 0 0;
#X connect 1 1 105 0;
#X connect 2 0 74 0;
#X connect 2 0 115 2;
#X connect 2 1 1 0;
#X connect 3 0 1 0;
#X connect 4 0 9 0;
#X connect 4 0 10 0;
#X connect 5 1 6 0;
#X connect 6 0 7 0;
#X connect 7 0 22 0;
#X connect 7 0 15 0;
#X connect 9 0 16 0;
#X connect 9 0 23 0;
#X connect 10 0 17 0;
#X connect 10 0 25 0;
#X connect 11 0 111 0;
#X connect 11 0 115 0;
#X connect 18 0 77 0;
#X connect 18 0 78 0;
#X connect 18 0 80 0;
#X connect 26 0 24 0;
#X connect 28 0 27 0;
#X connect 30 0 29 0;
#X connect 34 0 40 0;
#X connect 35 0 40 0;
#X connect 35 1 40 1;
#X connect 36 0 35 0;
#X connect 37 0 40 0;
#X connect 37 1 40 2;
#X connect 38 0 37 0;
#X connect 40 0 102 0;
#X connect 41 0 42 0;
#X connect 43 0 41 0;
#X connect 43 0 115 0;
#X connect 43 1 72 0;
#X connect 43 1 115 1;
#X connect 46 0 53 0;
#X connect 47 0 49 0;
#X connect 47 1 48 0;
#X connect 48 0 49 0;
#X connect 49 0 114 0;
#X connect 50 0 114 0;
#X connect 51 0 52 0;
#X connect 54 0 47 0;
#X connect 55 0 56 0;
#X connect 57 0 60 0;
#X connect 58 0 59 0;
#X connect 59 0 60 0;
#X connect 59 1 60 1;
#X connect 60 0 61 0;
#X connect 61 0 62 0;
#X connect 62 0 50 0;
#X connect 62 1 50 0;
#X connect 67 0 77 0;
#X connect 67 0 78 0;
#X connect 67 0 80 0;
#X connect 69 0 46 0;
#X connect 70 0 51 0;
#X connect 71 0 55 0;
#X connect 72 0 73 0;
#X connect 74 0 75 0;
#X connect 77 0 76 0;
#X connect 77 0 82 0;
#X connect 78 0 79 0;
#X connect 78 0 83 0;
#X connect 80 0 81 0;
#X connect 80 0 84 0;
#X connect 85 0 114 0;
#X connect 86 0 114 0;
#X connect 87 0 114 0;
#X connect 88 0 114 0;
#X connect 89 0 114 0;
#X connect 90 0 97 0;
#X connect 91 0 98 0;
#X connect 92 0 90 0;
#X connect 92 1 97 2;
#X connect 93 0 92 0;
#X connect 94 0 90 0;
#X connect 94 1 97 3;
#X connect 95 0 94 0;
#X connect 97 0 39 0;
#X connect 98 0 90 0;
#X connect 98 1 97 1;
#X connect 99 0 98 0;
#X connect 100 0 92 0;
#X connect 101 0 94 0;
#X connect 102 0 39 0;
#X connect 104 0 2 0;
#X connect 105 0 2 0;
#X connect 106 0 108 0;
#X connect 108 0 109 0;
#X connect 109 0 107 1;
#X connect 111 0 112 0;
#X connect 111 1 112 0;
#X connect 111 2 1 0;
#X connect 112 0 2 0;
#X connect 113 0 11 0;
#X connect 114 0 4 0;
#X connect 114 1 5 0;
#X connect 115 0 107 0;
#X connect 115 0 9 0;
#X connect 115 0 10 0;
#X connect 115 0 114 0;
#X connect 115 0 116 0;
#X connect 116 0 117 0;
#X connect 119 0 11 0;
#X coords 0 -1 1 1 370 173 1 157 -7;
#X restore -96 -701 pd analyse_audio;
#X text 22 -477 GET SOME REAL DATA IN!!;
#N canvas 1 55 1918 977 test 0;
#X obj 172 62 osc~ 262;
#X obj 202 179 * 0.1;
#X obj 172 218 *~;
#X obj 202 106 tgl 15 0 empty empty empty 17 7 0 10 #fcfcfc #000000
#000000 0 1;
#X msg 202 129 \$1 10;
#X obj 202 154 line;
#X obj 299 179 * 0.1;
#X obj 269 218 *~;
#X obj 299 106 tgl 15 0 empty empty empty 17 7 0 10 #fcfcfc #000000
#000000 0 1;
#X msg 299 129 \$1 10;
#X obj 299 154 line;
#X obj 397 178 * 0.1;
#X obj 367 217 *~;
#X obj 397 105 tgl 15 0 empty empty empty 17 7 0 10 #fcfcfc #000000
#000000 0 1;
#X msg 397 128 \$1 10;
#X obj 397 153 line;
#X obj 495 178 * 0.1;
#X obj 465 217 *~;
#X obj 495 105 tgl 15 0 empty empty empty 17 7 0 10 #fcfcfc #000000
#000000 0 1;
#X msg 495 128 \$1 10;
#X obj 495 153 line;
#X obj 592 178 * 0.1;
#X obj 562 217 *~;
#X obj 592 105 tgl 15 0 empty empty empty 17 7 0 10 #fcfcfc #000000
#000000 0 1;
#X msg 592 128 \$1 10;
#X obj 592 153 line;
#X obj 690 178 * 0.1;
#X obj 660 217 *~;
#X obj 690 105 tgl 15 0 empty empty empty 17 7 0 10 #fcfcfc #000000
#000000 0 1;
#X msg 690 128 \$1 10;
#X obj 690 153 line;
#X obj 269 62 osc~ 278;
#X obj 367 61 osc~ 294;
#X obj 465 61 osc~ 312;
#X obj 660 61 osc~ 350;
#X obj 172 269 dac~ 1 2 3 4 5 6 7 8 9 10, f 147;
#X obj 788 177 * 0.1;
#X obj 758 216 *~;
#X obj 788 104 tgl 15 0 empty empty empty 17 7 0 10 #fcfcfc #000000
#000000 0 1;
#X msg 788 127 \$1 10;
#X obj 788 152 line;
#X obj 885 177 * 0.1;
#X obj 855 216 *~;
#X obj 885 104 tgl 15 0 empty empty empty 17 7 0 10 #fcfcfc #000000
#000000 0 1;
#X msg 885 127 \$1 10;
#X obj 885 152 line;
#X obj 983 177 * 0.1;
#X obj 953 216 *~;
#X obj 983 104 tgl 15 0 empty empty empty 17 7 0 10 #fcfcfc #000000
#000000 0 1;
#X msg 983 127 \$1 10;
#X obj 983 152 line;
#X obj 1081 177 * 0.1;
#X obj 1051 216 *~;
#X obj 1081 104 tgl 15 0 empty empty empty 17 7 0 10 #fcfcfc #000000
#000000 0 1;
#X msg 1081 127 \$1 10;
#X obj 1081 152 line;
#X obj 758 60 osc~ 371;
#X obj 855 60 osc~ 393;
#X obj 953 60 osc~ 416;
#X obj 1051 60 osc~ 441;
#X text 172 31 out 1;
#X text 277 31 out 2;
#X text 377 31 out 3;
#X text 468 31 out 4;
#X text 572 31 out 5;
#X text 662 31 out 6;
#X text 763 31 out 7;
#X text 855 31 out 8;
#X text 956 31 out 9;
#X text 1048 31 out 10;
#X text 364 300 vib 1.1;
#X text 455 300 vib 1.2;
#X text 545 300 vib 1.3;
#X text 653 299 vib 2.1;
#X text 744 299 vib 2.2;
#X text 834 299 vib 2.3;
#X obj 199 218 env~;
#X floatatom 199 243 5 0 0 0 - - -, f 5;
#X obj 298 218 env~;
#X floatatom 298 243 5 0 0 0 - - -, f 5;
#X obj 396 217 env~;
#X floatatom 396 242 5 0 0 0 - - -, f 5;
#X obj 495 217 env~;
#X floatatom 495 242 5 0 0 0 - - -, f 5;
#X obj 588 219 env~;
#X floatatom 588 244 5 0 0 0 - - -, f 5;
#X obj 686 216 env~;
#X floatatom 686 241 5 0 0 0 - - -, f 5;
#X obj 784 216 env~;
#X floatatom 784 241 5 0 0 0 - - -, f 5;
#X obj 882 215 env~;
#X floatatom 882 240 5 0 0 0 - - -, f 5;
#X obj 978 218 env~;
#X floatatom 978 243 5 0 0 0 - - -, f 5;
#X obj 1078 218 env~;
#X floatatom 1078 243 5 0 0 0 - - -, f 5;
#X obj 562 61 osc~ 20;
#X connect 0 0 2 0;
#X connect 1 0 2 1;
#X connect 2 0 35 0;
#X connect 2 0 76 0;
#X connect 3 0 4 0;
#X connect 4 0 5 0;
#X connect 5 0 1 0;
#X connect 6 0 7 1;
#X connect 7 0 35 1;
#X connect 7 0 78 0;
#X connect 8 0 9 0;
#X connect 9 0 10 0;
#X connect 10 0 6 0;
#X connect 11 0 12 1;
#X connect 12 0 35 2;
#X connect 12 0 80 0;
#X connect 13 0 14 0;
#X connect 14 0 15 0;
#X connect 15 0 11 0;
#X connect 16 0 17 1;
#X connect 17 0 35 3;
#X connect 17 0 82 0;
#X connect 18 0 19 0;
#X connect 19 0 20 0;
#X connect 20 0 16 0;
#X connect 21 0 22 1;
#X connect 22 0 35 4;
#X connect 22 0 84 0;
#X connect 23 0 24 0;
#X connect 24 0 25 0;
#X connect 25 0 21 0;
#X connect 26 0 27 1;
#X connect 27 0 35 5;
#X connect 27 0 86 0;
#X connect 28 0 29 0;
#X connect 29 0 30 0;
#X connect 30 0 26 0;
#X connect 31 0 7 0;
#X connect 32 0 12 0;
#X connect 33 0 17 0;
#X connect 34 0 27 0;
#X connect 36 0 37 1;
#X connect 37 0 35 6;
#X connect 37 0 88 0;
#X connect 38 0 39 0;
#X connect 39 0 40 0;
#X connect 40 0 36 0;
#X connect 41 0 42 1;
#X connect 42 0 35 7;
#X connect 42 0 90 0;
#X connect 43 0 44 0;
#X connect 44 0 45 0;
#X connect 45 0 41 0;
#X connect 46 0 47 1;
#X connect 47 0 35 8;
#X connect 47 0 92 0;
#X connect 48 0 49 0;
#X connect 49 0 50 0;
#X connect 50 0 46 0;
#X connect 51 0 52 1;
#X connect 52 0 35 9;
#X connect 52 0 94 0;
#X connect 53 0 54 0;
#X connect 54 0 55 0;
#X connect 55 0 51 0;
#X connect 56 0 37 0;
#X connect 57 0 42 0;
#X connect 58 0 47 0;
#X connect 59 0 52 0;
#X connect 76 0 77 0;
#X connect 78 0 79 0;
#X connect 80 0 81 0;
#X connect 82 0 83 0;
#X connect 84 0 85 0;
#X connect 86 0 87 0;
#X connect 88 0 89 0;
#X connect 90 0 91 0;
#X connect 92 0 93 0;
#X connect 94 0 95 0;
#X connect 96 0 22 0;
#X restore -70 -376 pd test;
#X text 671 532 vib1;
#X text 721 533 vib2;
#X obj 708 461 env~;
#X floatatom 708 486 5 0 0 0 - - -, f 5;
#X obj 756 460 env~;
#X floatatom 756 485 5 0 0 0 - - -, f 5;
#X obj 1321 -441 s arthurdetect_minvel_;
#X obj 1345 -418 s arthurdetect_lowthresh_;
#X obj 1359 -395 s arthurdetect_highthresh_;
#X obj 1286 -555 bng 15 250 50 0 empty empty empty 17 7 0 10 #fcfcfc
#000000 #000000;
#X msg 1286 -532 30;
#X msg 1286 -512 50;
#X msg 1286 -492 70;
#X text 1282 -572 low;
#X obj 1358 -555 bng 15 250 50 0 empty empty empty 17 7 0 10 #fcfcfc
#000000 #000000;
#X msg 1358 -512 65;
#X msg 1358 -492 75;
#X msg 1358 -531 45, f 2;
#X text 1354 -572 mid;
#X obj 1488 -554 bng 15 250 50 0 empty empty empty 17 7 0 10 #fcfcfc
#000000 #000000;
#X text 1484 -571 high;
#X msg 1488 -511 80;
#X msg 1488 -530 65, f 2;
#X text 1270 -595 THRESHOLDS FOR ATTACK DETECTION;
#X obj 1415 -555 bng 15 250 50 0 empty empty empty 17 7 0 10 #fcfcfc
#000000 #000000;
#X text 1411 -572 mid2;
#X msg 1415 -531 50, f 2;
#X msg 1415 -492 82;
#X msg 1415 -512 70;
#X msg 1488 -491 93;
#X obj 1536 -556 bng 15 250 50 0 empty empty empty 17 7 0 10 #fcfcfc
#000000 #000000;
#X text 1531 -575 very high;
#X msg 1536 -532 80, f 2;
#X msg 1536 -513 90;
#X msg 1536 -493 96;
#X obj 698 607 dac~ 1 2, f 9;
#N canvas 251 66 986 677 oscIn 0;
#X obj 407 -200 import mrpeach;
#X obj 406 -173 udpreceive 9000;
#X obj 406 -146 unpackOSC;
#X obj 13 326 outlet Vol;
#X obj 104 326 outlet Preset;
#X obj 359 335 outlet in;
#X obj 531 419 outlet ToBonk;
#X obj 568 309 t b f;
#X text 371 305 0/1;
#X obj 531 247 t f f f, f 13;
#X obj 606 308 t b f;
#X obj 531 376 pack 40 50 70, f 19;
#X text 514 327 minvel;
#X text 570 354 low thres;
#X text 625 331 hi thres;
#X text 501 199 parameters to set bonk~ up;
#X obj 747 403 s arthurdetect_minvel_;
#X obj 708 424 s arthurdetect_lowthresh_;
#X obj 734 453 s arthurdetect_highthresh_;
#X obj 568 277 - 10;
#X obj 606 277 + 10;
#X obj 372 176 r RESET_IN;
#X text 294 151 toggle between input 0 and input 1;
#X text 210 263 memorize & recall (when switching off preset 5);
#X obj 359 281 f 0;
#X obj 406 -42 / 100;
#X obj 532 9 / 100;
#X obj 406 -83 routeOSC /volume /preset /in /sensib;
#X obj 532 221 maxlib/scale 0 1 100 0;
#X obj 371 37 vradio 15 0 0 5 empty empty empty 0 -8 0 10 #fcfcfc #000000
#000000 0;
#X obj 880 292 outlet printsensib;
#X connect 1 0 2 0;
#X connect 2 0 27 0;
#X connect 7 0 11 0;
#X connect 7 1 11 1;
#X connect 9 0 11 0;
#X connect 9 0 16 0;
#X connect 9 1 19 0;
#X connect 9 2 20 0;
#X connect 10 0 11 0;
#X connect 10 1 11 2;
#X connect 11 0 6 0;
#X connect 19 0 7 0;
#X connect 20 0 10 0;
#X connect 21 0 24 0;
#X connect 24 0 5 0;
#X connect 25 0 3 0;
#X connect 26 0 28 0;
#X connect 27 0 25 0;
#X connect 27 1 29 0;
#X connect 27 2 24 0;
#X connect 27 3 26 0;
#X connect 28 0 9 0;
#X connect 28 0 30 0;
#X connect 29 0 4 0;
#X restore 915 -696 pd oscIn;
#X obj 915 -606 s MASTERVOL;
#X text -61 151 *preset 5: shut everyone down \, connect in1 to out1
& in2 to out 2 / detect events on each channel & generate a brief square
wave on each event;
#X floatatom 1017 -689 5 0 0 0 - - -, f 5;
#X floatatom 1017 -668 5 0 0 0 - - -, f 5;
#X floatatom 1017 -647 5 0 0 0 - - -, f 5;
#X floatatom 1017 -626 5 0 0 0 - - -, f 5;
#X text 1106 -689 0:100;
#X text 1106 -626 0:100;
#X text 1106 -647 0/1;
#X text 1106 -668 0/1/2/3/4;
#X text 1050 -626 /sensib;
#X text 1050 -647 /in;
#X text 1050 -668 /preset;
#X text 1050 -689 /volume;
#X connect 7 0 8 0;
#X connect 9 0 7 0;
#X connect 9 1 10 0;
#X connect 11 0 47 0;
#X connect 12 0 13 0;
#X connect 12 0 18 0;
#X connect 13 0 10 1;
#X connect 14 0 15 0;
#X connect 14 0 18 0;
#X connect 15 0 13 0;
#X connect 15 1 13 1;
#X connect 16 0 17 0;
#X connect 16 0 18 0;
#X connect 17 0 13 0;
#X connect 17 1 13 2;
#X connect 18 0 19 0;
#X connect 20 0 21 0;
#X connect 20 0 25 0;
#X connect 21 0 18 0;
#X connect 22 0 14 0;
#X connect 23 0 24 0;
#X connect 24 0 47 0;
#X connect 27 0 47 0;
#X connect 28 0 16 0;
#X connect 29 0 12 0;
#X connect 30 0 91 1;
#X connect 30 0 36 0;
#X connect 31 0 91 0;
#X connect 32 0 31 1;
#X connect 32 0 30 1;
#X connect 32 0 34 0;
#X connect 35 0 32 0;
#X connect 39 0 22 0;
#X connect 40 0 22 0;
#X connect 47 0 48 0;
#X connect 48 0 31 0;
#X connect 48 0 58 0;
#X connect 48 1 30 0;
#X connect 48 1 60 0;
#X connect 51 0 22 0;
#X connect 53 0 9 0;
#X connect 58 0 59 0;
#X connect 60 0 61 0;
#X connect 65 0 66 0;
#X connect 65 0 67 0;
#X connect 65 0 68 0;
#X connect 66 0 62 0;
#X connect 67 0 63 0;
#X connect 68 0 64 0;
#X connect 70 0 73 0;
#X connect 70 0 71 0;
#X connect 70 0 72 0;
#X connect 71 0 63 0;
#X connect 72 0 64 0;
#X connect 73 0 62 0;
#X connect 75 0 78 0;
#X connect 75 0 77 0;
#X connect 75 0 85 0;
#X connect 77 0 63 0;
#X connect 78 0 62 0;
#X connect 80 0 82 0;
#X connect 80 0 84 0;
#X connect 80 0 83 0;
#X connect 82 0 62 0;
#X connect 83 0 64 0;
#X connect 84 0 63 0;
#X connect 85 0 64 0;
#X connect 86 0 88 0;
#X connect 86 0 89 0;
#X connect 86 0 90 0;
#X connect 88 0 62 0;
#X connect 89 0 63 0;
#X connect 90 0 64 0;
#X connect 92 0 93 0;
#X connect 92 0 95 0;
#X connect 92 1 10 2;
#X connect 92 1 96 0;
#X connect 92 2 53 0;
#X connect 92 2 97 0;
#X connect 92 4 98 0;
